<?xml version="1.0" encoding="utf-8" standalone="no"?>
<!DOCTYPE svg PUBLIC "-//W3C//DTD SVG 1.1//EN"
  "http://www.w3.org/Graphics/SVG/1.1/DTD/svg11.dtd">
<svg xmlns:xlink="http://www.w3.org/1999/xlink" width="794.471563pt" height="415.450219pt" viewBox="0 0 794.471563 415.450219" xmlns="http://www.w3.org/2000/svg" version="1.1">
 <metadata>
  <rdf:RDF xmlns:dc="http://purl.org/dc/elements/1.1/" xmlns:cc="http://creativecommons.org/ns#" xmlns:rdf="http://www.w3.org/1999/02/22-rdf-syntax-ns#">
   <cc:Work>
    <dc:type rdf:resource="http://purl.org/dc/dcmitype/StillImage"/>
    <dc:date>2026-06-11T11:11:07.649162</dc:date>
    <dc:format>image/svg+xml</dc:format>
    <dc:creator>
     <cc:Agent>
      <dc:title>Matplotlib v3.10.9, https://matplotlib.org/</dc:title>
     </cc:Agent>
    </dc:creator>
   </cc:Work>
  </rdf:RDF>
 </metadata>
 <defs>
  <style type="text/css">*{stroke-linejoin: round; stroke-linecap: butt}</style>
 </defs>
 <g id="figure_1">
  <g id="patch_1">
   <path d="M -0 415.450219 
L 794.471563 415.450219 
L 794.471563 0 
L -0 0 
z
" style="fill: #ffffff"/>
  </g>
  <g id="axes_1">
   <g id="patch_2">
    <path d="M 262.751563 377.893969 
L 787.271563 377.893969 
L 787.271563 23.077969 
L 262.751563 23.077969 
z
" style="fill: #ffffff"/>
   </g>
   <g id="LineCollection_1">
    <path d="M 312.29438 361.765969 
L 449.310736 361.765969 
" clip-path="url(#p8b43e09420)" style="fill: none; stroke: #475569; stroke-width: 1.4"/>
    <path d="M 287.338939 340.261969 
L 518.326029 340.261969 
" clip-path="url(#p8b43e09420)" style="fill: none; stroke: #475569; stroke-width: 1.4"/>
    <path d="M 352.090863 318.757969 
L 499.452402 318.757969 
" clip-path="url(#p8b43e09420)" style="fill: none; stroke: #475569; stroke-width: 1.4"/>
    <path d="M 360.353253 297.253969 
L 502.4323 297.253969 
" clip-path="url(#p8b43e09420)" style="fill: none; stroke: #475569; stroke-width: 1.4"/>
    <path d="M 377.552794 275.749969 
L 533.167184 275.749969 
" clip-path="url(#p8b43e09420)" style="fill: none; stroke: #475569; stroke-width: 1.4"/>
    <path d="M 393.484356 254.245969 
L 656.611562 254.245969 
" clip-path="url(#p8b43e09420)" style="fill: none; stroke: #475569; stroke-width: 1.4"/>
    <path d="M 384.532574 232.741969 
L 540.528105 232.741969 
" clip-path="url(#p8b43e09420)" style="fill: none; stroke: #475569; stroke-width: 1.4"/>
    <path d="M 373.044944 211.237969 
L 529.296548 211.237969 
" clip-path="url(#p8b43e09420)" style="fill: none; stroke: #475569; stroke-width: 1.4"/>
    <path d="M 509.063206 189.733969 
L 686.219647 189.733969 
" clip-path="url(#p8b43e09420)" style="fill: none; stroke: #475569; stroke-width: 1.4"/>
    <path d="M 503.575594 168.229969 
L 758.740094 168.229969 
" clip-path="url(#p8b43e09420)" style="fill: none; stroke: #475569; stroke-width: 1.4"/>
    <path d="M 309.982006 146.725969 
L 457.857803 146.725969 
" clip-path="url(#p8b43e09420)" style="fill: none; stroke: #475569; stroke-width: 1.4"/>
    <path d="M 413.983758 125.221969 
L 558.443874 125.221969 
" clip-path="url(#p8b43e09420)" style="fill: none; stroke: #475569; stroke-width: 1.4"/>
    <path d="M 311.885039 103.717969 
L 453.559246 103.717969 
" clip-path="url(#p8b43e09420)" style="fill: none; stroke: #475569; stroke-width: 1.4"/>
    <path d="M 309.076569 82.213969 
L 550.62063 82.213969 
" clip-path="url(#p8b43e09420)" style="fill: none; stroke: #475569; stroke-width: 1.4"/>
    <path d="M 367.605797 60.709969 
L 519.216474 60.709969 
" clip-path="url(#p8b43e09420)" style="fill: none; stroke: #475569; stroke-width: 1.4"/>
    <path d="M 377.031525 39.205969 
L 522.970333 39.205969 
" clip-path="url(#p8b43e09420)" style="fill: none; stroke: #475569; stroke-width: 1.4"/>
   </g>
   <g id="line2d_1">
    <defs>
     <path id="m1bb006a1be" d="M 0 3 
L 0 -3 
" style="stroke: #475569"/>
    </defs>
    <g clip-path="url(#p8b43e09420)">
     <use xlink:href="#m1bb006a1be" x="312.29438" y="361.765969" style="fill: #1f77b4; stroke: #475569"/>
     <use xlink:href="#m1bb006a1be" x="287.338939" y="340.261969" style="fill: #1f77b4; stroke: #475569"/>
     <use xlink:href="#m1bb006a1be" x="352.090863" y="318.757969" style="fill: #1f77b4; stroke: #475569"/>
     <use xlink:href="#m1bb006a1be" x="360.353253" y="297.253969" style="fill: #1f77b4; stroke: #475569"/>
     <use xlink:href="#m1bb006a1be" x="377.552794" y="275.749969" style="fill: #1f77b4; stroke: #475569"/>
     <use xlink:href="#m1bb006a1be" x="393.484356" y="254.245969" style="fill: #1f77b4; stroke: #475569"/>
     <use xlink:href="#m1bb006a1be" x="384.532574" y="232.741969" style="fill: #1f77b4; stroke: #475569"/>
     <use xlink:href="#m1bb006a1be" x="373.044944" y="211.237969" style="fill: #1f77b4; stroke: #475569"/>
     <use xlink:href="#m1bb006a1be" x="509.063206" y="189.733969" style="fill: #1f77b4; stroke: #475569"/>
     <use xlink:href="#m1bb006a1be" x="503.575594" y="168.229969" style="fill: #1f77b4; stroke: #475569"/>
     <use xlink:href="#m1bb006a1be" x="309.982006" y="146.725969" style="fill: #1f77b4; stroke: #475569"/>
     <use xlink:href="#m1bb006a1be" x="413.983758" y="125.221969" style="fill: #1f77b4; stroke: #475569"/>
     <use xlink:href="#m1bb006a1be" x="311.885039" y="103.717969" style="fill: #1f77b4; stroke: #475569"/>
     <use xlink:href="#m1bb006a1be" x="309.076569" y="82.213969" style="fill: #1f77b4; stroke: #475569"/>
     <use xlink:href="#m1bb006a1be" x="367.605797" y="60.709969" style="fill: #1f77b4; stroke: #475569"/>
     <use xlink:href="#m1bb006a1be" x="377.031525" y="39.205969" style="fill: #1f77b4; stroke: #475569"/>
    </g>
   </g>
   <g id="line2d_2">
    <g clip-path="url(#p8b43e09420)">
     <use xlink:href="#m1bb006a1be" x="449.310736" y="361.765969" style="fill: #1f77b4; stroke: #475569"/>
     <use xlink:href="#m1bb006a1be" x="518.326029" y="340.261969" style="fill: #1f77b4; stroke: #475569"/>
     <use xlink:href="#m1bb006a1be" x="499.452402" y="318.757969" style="fill: #1f77b4; stroke: #475569"/>
     <use xlink:href="#m1bb006a1be" x="502.4323" y="297.253969" style="fill: #1f77b4; stroke: #475569"/>
     <use xlink:href="#m1bb006a1be" x="533.167184" y="275.749969" style="fill: #1f77b4; stroke: #475569"/>
     <use xlink:href="#m1bb006a1be" x="656.611562" y="254.245969" style="fill: #1f77b4; stroke: #475569"/>
     <use xlink:href="#m1bb006a1be" x="540.528105" y="232.741969" style="fill: #1f77b4; stroke: #475569"/>
     <use xlink:href="#m1bb006a1be" x="529.296548" y="211.237969" style="fill: #1f77b4; stroke: #475569"/>
     <use xlink:href="#m1bb006a1be" x="686.219647" y="189.733969" style="fill: #1f77b4; stroke: #475569"/>
     <use xlink:href="#m1bb006a1be" x="758.740094" y="168.229969" style="fill: #1f77b4; stroke: #475569"/>
     <use xlink:href="#m1bb006a1be" x="457.857803" y="146.725969" style="fill: #1f77b4; stroke: #475569"/>
     <use xlink:href="#m1bb006a1be" x="558.443874" y="125.221969" style="fill: #1f77b4; stroke: #475569"/>
     <use xlink:href="#m1bb006a1be" x="453.559246" y="103.717969" style="fill: #1f77b4; stroke: #475569"/>
     <use xlink:href="#m1bb006a1be" x="550.62063" y="82.213969" style="fill: #1f77b4; stroke: #475569"/>
     <use xlink:href="#m1bb006a1be" x="519.216474" y="60.709969" style="fill: #1f77b4; stroke: #475569"/>
     <use xlink:href="#m1bb006a1be" x="522.970333" y="39.205969" style="fill: #1f77b4; stroke: #475569"/>
    </g>
   </g>
   <g id="matplotlib.axis_1">
    <g id="xtick_1">
     <g id="line2d_3">
      <path d="M 280.838459 377.893969 
L 280.838459 23.077969 
" clip-path="url(#p8b43e09420)" style="fill: none; stroke: #e5e7eb; stroke-width: 0.8; stroke-linecap: square"/>
     </g>
     <g id="line2d_4">
      <defs>
       <path id="m230392f1a7" d="M 0 0 
L 0 3.5 
" style="stroke: #000000; stroke-width: 0.8"/>
      </defs>
      <g>
       <use xlink:href="#m230392f1a7" x="280.838459" y="377.893969" style="stroke: #000000; stroke-width: 0.8"/>
      </g>
     </g>
     <g id="text_1">
      <!-- −0.05 -->
      <g transform="translate(265.515803 392.492406) scale(0.1 -0.1)">
       <defs>
        <path id="DejaVuSans-2212" d="M 678 2272 
L 4684 2272 
L 4684 1741 
L 678 1741 
L 678 2272 
z
" transform="scale(0.015625)"/>
        <path id="DejaVuSans-30" d="M 2034 4250 
Q 1547 4250 1301 3770 
Q 1056 3291 1056 2328 
Q 1056 1369 1301 889 
Q 1547 409 2034 409 
Q 2525 409 2770 889 
Q 3016 1369 3016 2328 
Q 3016 3291 2770 3770 
Q 2525 4250 2034 4250 
z
M 2034 4750 
Q 2819 4750 3233 4129 
Q 3647 3509 3647 2328 
Q 3647 1150 3233 529 
Q 2819 -91 2034 -91 
Q 1250 -91 836 529 
Q 422 1150 422 2328 
Q 422 3509 836 4129 
Q 1250 4750 2034 4750 
z
" transform="scale(0.015625)"/>
        <path id="DejaVuSans-2e" d="M 684 794 
L 1344 794 
L 1344 0 
L 684 0 
L 684 794 
z
" transform="scale(0.015625)"/>
        <path id="DejaVuSans-35" d="M 691 4666 
L 3169 4666 
L 3169 4134 
L 1269 4134 
L 1269 2991 
Q 1406 3038 1543 3061 
Q 1681 3084 1819 3084 
Q 2600 3084 3056 2656 
Q 3513 2228 3513 1497 
Q 3513 744 3044 326 
Q 2575 -91 1722 -91 
Q 1428 -91 1123 -41 
Q 819 9 494 109 
L 494 744 
Q 775 591 1075 516 
Q 1375 441 1709 441 
Q 2250 441 2565 725 
Q 2881 1009 2881 1497 
Q 2881 1984 2565 2268 
Q 2250 2553 1709 2553 
Q 1456 2553 1204 2497 
Q 953 2441 691 2322 
L 691 4666 
z
" transform="scale(0.015625)"/>
       </defs>
       <use xlink:href="#DejaVuSans-2212"/>
       <use xlink:href="#DejaVuSans-30" transform="translate(83.789062 0)"/>
       <use xlink:href="#DejaVuSans-2e" transform="translate(147.412109 0)"/>
       <use xlink:href="#DejaVuSans-30" transform="translate(179.199219 0)"/>
       <use xlink:href="#DejaVuSans-35" transform="translate(242.822266 0)"/>
      </g>
     </g>
    </g>
    <g id="xtick_2">
     <g id="line2d_5">
      <path d="M 371.272942 377.893969 
L 371.272942 23.077969 
" clip-path="url(#p8b43e09420)" style="fill: none; stroke: #e5e7eb; stroke-width: 0.8; stroke-linecap: square"/>
     </g>
     <g id="line2d_6">
      <g>
       <use xlink:href="#m230392f1a7" x="371.272942" y="377.893969" style="stroke: #000000; stroke-width: 0.8"/>
      </g>
     </g>
     <g id="text_2">
      <!-- 0.00 -->
      <g transform="translate(360.140129 392.492406) scale(0.1 -0.1)">
       <use xlink:href="#DejaVuSans-30"/>
       <use xlink:href="#DejaVuSans-2e" transform="translate(63.623047 0)"/>
       <use xlink:href="#DejaVuSans-30" transform="translate(95.410156 0)"/>
       <use xlink:href="#DejaVuSans-30" transform="translate(159.033203 0)"/>
      </g>
     </g>
    </g>
    <g id="xtick_3">
     <g id="line2d_7">
      <path d="M 461.707425 377.893969 
L 461.707425 23.077969 
" clip-path="url(#p8b43e09420)" style="fill: none; stroke: #e5e7eb; stroke-width: 0.8; stroke-linecap: square"/>
     </g>
     <g id="line2d_8">
      <g>
       <use xlink:href="#m230392f1a7" x="461.707425" y="377.893969" style="stroke: #000000; stroke-width: 0.8"/>
      </g>
     </g>
     <g id="text_3">
      <!-- 0.05 -->
      <g transform="translate(450.574612 392.492406) scale(0.1 -0.1)">
       <use xlink:href="#DejaVuSans-30"/>
       <use xlink:href="#DejaVuSans-2e" transform="translate(63.623047 0)"/>
       <use xlink:href="#DejaVuSans-30" transform="translate(95.410156 0)"/>
       <use xlink:href="#DejaVuSans-35" transform="translate(159.033203 0)"/>
      </g>
     </g>
    </g>
    <g id="xtick_4">
     <g id="line2d_9">
      <path d="M 552.141907 377.893969 
L 552.141907 23.077969 
" clip-path="url(#p8b43e09420)" style="fill: none; stroke: #e5e7eb; stroke-width: 0.8; stroke-linecap: square"/>
     </g>
     <g id="line2d_10">
      <g>
       <use xlink:href="#m230392f1a7" x="552.141907" y="377.893969" style="stroke: #000000; stroke-width: 0.8"/>
      </g>
     </g>
     <g id="text_4">
      <!-- 0.10 -->
      <g transform="translate(541.009095 392.492406) scale(0.1 -0.1)">
       <defs>
        <path id="DejaVuSans-31" d="M 794 531 
L 1825 531 
L 1825 4091 
L 703 3866 
L 703 4441 
L 1819 4666 
L 2450 4666 
L 2450 531 
L 3481 531 
L 3481 0 
L 794 0 
L 794 531 
z
" transform="scale(0.015625)"/>
       </defs>
       <use xlink:href="#DejaVuSans-30"/>
       <use xlink:href="#DejaVuSans-2e" transform="translate(63.623047 0)"/>
       <use xlink:href="#DejaVuSans-31" transform="translate(95.410156 0)"/>
       <use xlink:href="#DejaVuSans-30" transform="translate(159.033203 0)"/>
      </g>
     </g>
    </g>
    <g id="xtick_5">
     <g id="line2d_11">
      <path d="M 642.57639 377.893969 
L 642.57639 23.077969 
" clip-path="url(#p8b43e09420)" style="fill: none; stroke: #e5e7eb; stroke-width: 0.8; stroke-linecap: square"/>
     </g>
     <g id="line2d_12">
      <g>
       <use xlink:href="#m230392f1a7" x="642.57639" y="377.893969" style="stroke: #000000; stroke-width: 0.8"/>
      </g>
     </g>
     <g id="text_5">
      <!-- 0.15 -->
      <g transform="translate(631.443578 392.492406) scale(0.1 -0.1)">
       <use xlink:href="#DejaVuSans-30"/>
       <use xlink:href="#DejaVuSans-2e" transform="translate(63.623047 0)"/>
       <use xlink:href="#DejaVuSans-31" transform="translate(95.410156 0)"/>
       <use xlink:href="#DejaVuSans-35" transform="translate(159.033203 0)"/>
      </g>
     </g>
    </g>
    <g id="xtick_6">
     <g id="line2d_13">
      <path d="M 733.010873 377.893969 
L 733.010873 23.077969 
" clip-path="url(#p8b43e09420)" style="fill: none; stroke: #e5e7eb; stroke-width: 0.8; stroke-linecap: square"/>
     </g>
     <g id="line2d_14">
      <g>
       <use xlink:href="#m230392f1a7" x="733.010873" y="377.893969" style="stroke: #000000; stroke-width: 0.8"/>
      </g>
     </g>
     <g id="text_6">
      <!-- 0.20 -->
      <g transform="translate(721.87806 392.492406) scale(0.1 -0.1)">
       <defs>
        <path id="DejaVuSans-32" d="M 1228 531 
L 3431 531 
L 3431 0 
L 469 0 
L 469 531 
Q 828 903 1448 1529 
Q 2069 2156 2228 2338 
Q 2531 2678 2651 2914 
Q 2772 3150 2772 3378 
Q 2772 3750 2511 3984 
Q 2250 4219 1831 4219 
Q 1534 4219 1204 4116 
Q 875 4013 500 3803 
L 500 4441 
Q 881 4594 1212 4672 
Q 1544 4750 1819 4750 
Q 2544 4750 2975 4387 
Q 3406 4025 3406 3419 
Q 3406 3131 3298 2873 
Q 3191 2616 2906 2266 
Q 2828 2175 2409 1742 
Q 1991 1309 1228 531 
z
" transform="scale(0.015625)"/>
       </defs>
       <use xlink:href="#DejaVuSans-30"/>
       <use xlink:href="#DejaVuSans-2e" transform="translate(63.623047 0)"/>
       <use xlink:href="#DejaVuSans-32" transform="translate(95.410156 0)"/>
       <use xlink:href="#DejaVuSans-30" transform="translate(159.033203 0)"/>
      </g>
     </g>
    </g>
    <g id="text_7">
     <!-- Paired image-level delta: Tile EfficientNet-B0 minus comparator -->
     <g transform="translate(365.933438 406.170531) scale(0.1 -0.1)">
      <defs>
       <path id="DejaVuSans-50" d="M 1259 4147 
L 1259 2394 
L 2053 2394 
Q 2494 2394 2734 2622 
Q 2975 2850 2975 3272 
Q 2975 3691 2734 3919 
Q 2494 4147 2053 4147 
L 1259 4147 
z
M 628 4666 
L 2053 4666 
Q 2838 4666 3239 4311 
Q 3641 3956 3641 3272 
Q 3641 2581 3239 2228 
Q 2838 1875 2053 1875 
L 1259 1875 
L 1259 0 
L 628 0 
L 628 4666 
z
" transform="scale(0.015625)"/>
       <path id="DejaVuSans-61" d="M 2194 1759 
Q 1497 1759 1228 1600 
Q 959 1441 959 1056 
Q 959 750 1161 570 
Q 1363 391 1709 391 
Q 2188 391 2477 730 
Q 2766 1069 2766 1631 
L 2766 1759 
L 2194 1759 
z
M 3341 1997 
L 3341 0 
L 2766 0 
L 2766 531 
Q 2569 213 2275 61 
Q 1981 -91 1556 -91 
Q 1019 -91 701 211 
Q 384 513 384 1019 
Q 384 1609 779 1909 
Q 1175 2209 1959 2209 
L 2766 2209 
L 2766 2266 
Q 2766 2663 2505 2880 
Q 2244 3097 1772 3097 
Q 1472 3097 1187 3025 
Q 903 2953 641 2809 
L 641 3341 
Q 956 3463 1253 3523 
Q 1550 3584 1831 3584 
Q 2591 3584 2966 3190 
Q 3341 2797 3341 1997 
z
" transform="scale(0.015625)"/>
       <path id="DejaVuSans-69" d="M 603 3500 
L 1178 3500 
L 1178 0 
L 603 0 
L 603 3500 
z
M 603 4863 
L 1178 4863 
L 1178 4134 
L 603 4134 
L 603 4863 
z
" transform="scale(0.015625)"/>
       <path id="DejaVuSans-72" d="M 2631 2963 
Q 2534 3019 2420 3045 
Q 2306 3072 2169 3072 
Q 1681 3072 1420 2755 
Q 1159 2438 1159 1844 
L 1159 0 
L 581 0 
L 581 3500 
L 1159 3500 
L 1159 2956 
Q 1341 3275 1631 3429 
Q 1922 3584 2338 3584 
Q 2397 3584 2469 3576 
Q 2541 3569 2628 3553 
L 2631 2963 
z
" transform="scale(0.015625)"/>
       <path id="DejaVuSans-65" d="M 3597 1894 
L 3597 1613 
L 953 1613 
Q 991 1019 1311 708 
Q 1631 397 2203 397 
Q 2534 397 2845 478 
Q 3156 559 3463 722 
L 3463 178 
Q 3153 47 2828 -22 
Q 2503 -91 2169 -91 
Q 1331 -91 842 396 
Q 353 884 353 1716 
Q 353 2575 817 3079 
Q 1281 3584 2069 3584 
Q 2775 3584 3186 3129 
Q 3597 2675 3597 1894 
z
M 3022 2063 
Q 3016 2534 2758 2815 
Q 2500 3097 2075 3097 
Q 1594 3097 1305 2825 
Q 1016 2553 972 2059 
L 3022 2063 
z
" transform="scale(0.015625)"/>
       <path id="DejaVuSans-64" d="M 2906 2969 
L 2906 4863 
L 3481 4863 
L 3481 0 
L 2906 0 
L 2906 525 
Q 2725 213 2448 61 
Q 2172 -91 1784 -91 
Q 1150 -91 751 415 
Q 353 922 353 1747 
Q 353 2572 751 3078 
Q 1150 3584 1784 3584 
Q 2172 3584 2448 3432 
Q 2725 3281 2906 2969 
z
M 947 1747 
Q 947 1113 1208 752 
Q 1469 391 1925 391 
Q 2381 391 2643 752 
Q 2906 1113 2906 1747 
Q 2906 2381 2643 2742 
Q 2381 3103 1925 3103 
Q 1469 3103 1208 2742 
Q 947 2381 947 1747 
z
" transform="scale(0.015625)"/>
       <path id="DejaVuSans-20" transform="scale(0.015625)"/>
       <path id="DejaVuSans-6d" d="M 3328 2828 
Q 3544 3216 3844 3400 
Q 4144 3584 4550 3584 
Q 5097 3584 5394 3201 
Q 5691 2819 5691 2113 
L 5691 0 
L 5113 0 
L 5113 2094 
Q 5113 2597 4934 2840 
Q 4756 3084 4391 3084 
Q 3944 3084 3684 2787 
Q 3425 2491 3425 1978 
L 3425 0 
L 2847 0 
L 2847 2094 
Q 2847 2600 2669 2842 
Q 2491 3084 2119 3084 
Q 1678 3084 1418 2786 
Q 1159 2488 1159 1978 
L 1159 0 
L 581 0 
L 581 3500 
L 1159 3500 
L 1159 2956 
Q 1356 3278 1631 3431 
Q 1906 3584 2284 3584 
Q 2666 3584 2933 3390 
Q 3200 3197 3328 2828 
z
" transform="scale(0.015625)"/>
       <path id="DejaVuSans-67" d="M 2906 1791 
Q 2906 2416 2648 2759 
Q 2391 3103 1925 3103 
Q 1463 3103 1205 2759 
Q 947 2416 947 1791 
Q 947 1169 1205 825 
Q 1463 481 1925 481 
Q 2391 481 2648 825 
Q 2906 1169 2906 1791 
z
M 3481 434 
Q 3481 -459 3084 -895 
Q 2688 -1331 1869 -1331 
Q 1566 -1331 1297 -1286 
Q 1028 -1241 775 -1147 
L 775 -588 
Q 1028 -725 1275 -790 
Q 1522 -856 1778 -856 
Q 2344 -856 2625 -561 
Q 2906 -266 2906 331 
L 2906 616 
Q 2728 306 2450 153 
Q 2172 0 1784 0 
Q 1141 0 747 490 
Q 353 981 353 1791 
Q 353 2603 747 3093 
Q 1141 3584 1784 3584 
Q 2172 3584 2450 3431 
Q 2728 3278 2906 2969 
L 2906 3500 
L 3481 3500 
L 3481 434 
z
" transform="scale(0.015625)"/>
       <path id="DejaVuSans-2d" d="M 313 2009 
L 1997 2009 
L 1997 1497 
L 313 1497 
L 313 2009 
z
" transform="scale(0.015625)"/>
       <path id="DejaVuSans-6c" d="M 603 4863 
L 1178 4863 
L 1178 0 
L 603 0 
L 603 4863 
z
" transform="scale(0.015625)"/>
       <path id="DejaVuSans-76" d="M 191 3500 
L 800 3500 
L 1894 563 
L 2988 3500 
L 3597 3500 
L 2284 0 
L 1503 0 
L 191 3500 
z
" transform="scale(0.015625)"/>
       <path id="DejaVuSans-74" d="M 1172 4494 
L 1172 3500 
L 2356 3500 
L 2356 3053 
L 1172 3053 
L 1172 1153 
Q 1172 725 1289 603 
Q 1406 481 1766 481 
L 2356 481 
L 2356 0 
L 1766 0 
Q 1100 0 847 248 
Q 594 497 594 1153 
L 594 3053 
L 172 3053 
L 172 3500 
L 594 3500 
L 594 4494 
L 1172 4494 
z
" transform="scale(0.015625)"/>
       <path id="DejaVuSans-3a" d="M 750 794 
L 1409 794 
L 1409 0 
L 750 0 
L 750 794 
z
M 750 3309 
L 1409 3309 
L 1409 2516 
L 750 2516 
L 750 3309 
z
" transform="scale(0.015625)"/>
       <path id="DejaVuSans-54" d="M -19 4666 
L 3928 4666 
L 3928 4134 
L 2272 4134 
L 2272 0 
L 1638 0 
L 1638 4134 
L -19 4134 
L -19 4666 
z
" transform="scale(0.015625)"/>
       <path id="DejaVuSans-45" d="M 628 4666 
L 3578 4666 
L 3578 4134 
L 1259 4134 
L 1259 2753 
L 3481 2753 
L 3481 2222 
L 1259 2222 
L 1259 531 
L 3634 531 
L 3634 0 
L 628 0 
L 628 4666 
z
" transform="scale(0.015625)"/>
       <path id="DejaVuSans-66" d="M 2375 4863 
L 2375 4384 
L 1825 4384 
Q 1516 4384 1395 4259 
Q 1275 4134 1275 3809 
L 1275 3500 
L 2222 3500 
L 2222 3053 
L 1275 3053 
L 1275 0 
L 697 0 
L 697 3053 
L 147 3053 
L 147 3500 
L 697 3500 
L 697 3744 
Q 697 4328 969 4595 
Q 1241 4863 1831 4863 
L 2375 4863 
z
" transform="scale(0.015625)"/>
       <path id="DejaVuSans-63" d="M 3122 3366 
L 3122 2828 
Q 2878 2963 2633 3030 
Q 2388 3097 2138 3097 
Q 1578 3097 1268 2742 
Q 959 2388 959 1747 
Q 959 1106 1268 751 
Q 1578 397 2138 397 
Q 2388 397 2633 464 
Q 2878 531 3122 666 
L 3122 134 
Q 2881 22 2623 -34 
Q 2366 -91 2075 -91 
Q 1284 -91 818 406 
Q 353 903 353 1747 
Q 353 2603 823 3093 
Q 1294 3584 2113 3584 
Q 2378 3584 2631 3529 
Q 2884 3475 3122 3366 
z
" transform="scale(0.015625)"/>
       <path id="DejaVuSans-6e" d="M 3513 2113 
L 3513 0 
L 2938 0 
L 2938 2094 
Q 2938 2591 2744 2837 
Q 2550 3084 2163 3084 
Q 1697 3084 1428 2787 
Q 1159 2491 1159 1978 
L 1159 0 
L 581 0 
L 581 3500 
L 1159 3500 
L 1159 2956 
Q 1366 3272 1645 3428 
Q 1925 3584 2291 3584 
Q 2894 3584 3203 3211 
Q 3513 2838 3513 2113 
z
" transform="scale(0.015625)"/>
       <path id="DejaVuSans-4e" d="M 628 4666 
L 1478 4666 
L 3547 763 
L 3547 4666 
L 4159 4666 
L 4159 0 
L 3309 0 
L 1241 3903 
L 1241 0 
L 628 0 
L 628 4666 
z
" transform="scale(0.015625)"/>
       <path id="DejaVuSans-42" d="M 1259 2228 
L 1259 519 
L 2272 519 
Q 2781 519 3026 730 
Q 3272 941 3272 1375 
Q 3272 1813 3026 2020 
Q 2781 2228 2272 2228 
L 1259 2228 
z
M 1259 4147 
L 1259 2741 
L 2194 2741 
Q 2656 2741 2882 2914 
Q 3109 3088 3109 3444 
Q 3109 3797 2882 3972 
Q 2656 4147 2194 4147 
L 1259 4147 
z
M 628 4666 
L 2241 4666 
Q 2963 4666 3353 4366 
Q 3744 4066 3744 3513 
Q 3744 3084 3544 2831 
Q 3344 2578 2956 2516 
Q 3422 2416 3680 2098 
Q 3938 1781 3938 1306 
Q 3938 681 3513 340 
Q 3088 0 2303 0 
L 628 0 
L 628 4666 
z
" transform="scale(0.015625)"/>
       <path id="DejaVuSans-75" d="M 544 1381 
L 544 3500 
L 1119 3500 
L 1119 1403 
Q 1119 906 1312 657 
Q 1506 409 1894 409 
Q 2359 409 2629 706 
Q 2900 1003 2900 1516 
L 2900 3500 
L 3475 3500 
L 3475 0 
L 2900 0 
L 2900 538 
Q 2691 219 2414 64 
Q 2138 -91 1772 -91 
Q 1169 -91 856 284 
Q 544 659 544 1381 
z
M 1991 3584 
L 1991 3584 
z
" transform="scale(0.015625)"/>
       <path id="DejaVuSans-73" d="M 2834 3397 
L 2834 2853 
Q 2591 2978 2328 3040 
Q 2066 3103 1784 3103 
Q 1356 3103 1142 2972 
Q 928 2841 928 2578 
Q 928 2378 1081 2264 
Q 1234 2150 1697 2047 
L 1894 2003 
Q 2506 1872 2764 1633 
Q 3022 1394 3022 966 
Q 3022 478 2636 193 
Q 2250 -91 1575 -91 
Q 1294 -91 989 -36 
Q 684 19 347 128 
L 347 722 
Q 666 556 975 473 
Q 1284 391 1588 391 
Q 1994 391 2212 530 
Q 2431 669 2431 922 
Q 2431 1156 2273 1281 
Q 2116 1406 1581 1522 
L 1381 1569 
Q 847 1681 609 1914 
Q 372 2147 372 2553 
Q 372 3047 722 3315 
Q 1072 3584 1716 3584 
Q 2034 3584 2315 3537 
Q 2597 3491 2834 3397 
z
" transform="scale(0.015625)"/>
       <path id="DejaVuSans-6f" d="M 1959 3097 
Q 1497 3097 1228 2736 
Q 959 2375 959 1747 
Q 959 1119 1226 758 
Q 1494 397 1959 397 
Q 2419 397 2687 759 
Q 2956 1122 2956 1747 
Q 2956 2369 2687 2733 
Q 2419 3097 1959 3097 
z
M 1959 3584 
Q 2709 3584 3137 3096 
Q 3566 2609 3566 1747 
Q 3566 888 3137 398 
Q 2709 -91 1959 -91 
Q 1206 -91 779 398 
Q 353 888 353 1747 
Q 353 2609 779 3096 
Q 1206 3584 1959 3584 
z
" transform="scale(0.015625)"/>
       <path id="DejaVuSans-70" d="M 1159 525 
L 1159 -1331 
L 581 -1331 
L 581 3500 
L 1159 3500 
L 1159 2969 
Q 1341 3281 1617 3432 
Q 1894 3584 2278 3584 
Q 2916 3584 3314 3078 
Q 3713 2572 3713 1747 
Q 3713 922 3314 415 
Q 2916 -91 2278 -91 
Q 1894 -91 1617 61 
Q 1341 213 1159 525 
z
M 3116 1747 
Q 3116 2381 2855 2742 
Q 2594 3103 2138 3103 
Q 1681 3103 1420 2742 
Q 1159 2381 1159 1747 
Q 1159 1113 1420 752 
Q 1681 391 2138 391 
Q 2594 391 2855 752 
Q 3116 1113 3116 1747 
z
" transform="scale(0.015625)"/>
      </defs>
      <use xlink:href="#DejaVuSans-50"/>
      <use xlink:href="#DejaVuSans-61" transform="translate(55.802734 0)"/>
      <use xlink:href="#DejaVuSans-69" transform="translate(117.082031 0)"/>
      <use xlink:href="#DejaVuSans-72" transform="translate(144.865234 0)"/>
      <use xlink:href="#DejaVuSans-65" transform="translate(183.728516 0)"/>
      <use xlink:href="#DejaVuSans-64" transform="translate(245.251953 0)"/>
      <use xlink:href="#DejaVuSans-20" transform="translate(308.728516 0)"/>
      <use xlink:href="#DejaVuSans-69" transform="translate(340.515625 0)"/>
      <use xlink:href="#DejaVuSans-6d" transform="translate(368.298828 0)"/>
      <use xlink:href="#DejaVuSans-61" transform="translate(465.710938 0)"/>
      <use xlink:href="#DejaVuSans-67" transform="translate(526.990234 0)"/>
      <use xlink:href="#DejaVuSans-65" transform="translate(590.466797 0)"/>
      <use xlink:href="#DejaVuSans-2d" transform="translate(651.990234 0)"/>
      <use xlink:href="#DejaVuSans-6c" transform="translate(688.074219 0)"/>
      <use xlink:href="#DejaVuSans-65" transform="translate(715.857422 0)"/>
      <use xlink:href="#DejaVuSans-76" transform="translate(777.380859 0)"/>
      <use xlink:href="#DejaVuSans-65" transform="translate(836.560547 0)"/>
      <use xlink:href="#DejaVuSans-6c" transform="translate(898.083984 0)"/>
      <use xlink:href="#DejaVuSans-20" transform="translate(925.867188 0)"/>
      <use xlink:href="#DejaVuSans-64" transform="translate(957.654297 0)"/>
      <use xlink:href="#DejaVuSans-65" transform="translate(1021.130859 0)"/>
      <use xlink:href="#DejaVuSans-6c" transform="translate(1082.654297 0)"/>
      <use xlink:href="#DejaVuSans-74" transform="translate(1110.4375 0)"/>
      <use xlink:href="#DejaVuSans-61" transform="translate(1149.646484 0)"/>
      <use xlink:href="#DejaVuSans-3a" transform="translate(1210.925781 0)"/>
      <use xlink:href="#DejaVuSans-20" transform="translate(1244.617188 0)"/>
      <use xlink:href="#DejaVuSans-54" transform="translate(1276.404297 0)"/>
      <use xlink:href="#DejaVuSans-69" transform="translate(1334.363281 0)"/>
      <use xlink:href="#DejaVuSans-6c" transform="translate(1362.146484 0)"/>
      <use xlink:href="#DejaVuSans-65" transform="translate(1389.929688 0)"/>
      <use xlink:href="#DejaVuSans-20" transform="translate(1451.453125 0)"/>
      <use xlink:href="#DejaVuSans-45" transform="translate(1483.240234 0)"/>
      <use xlink:href="#DejaVuSans-66" transform="translate(1546.423828 0)"/>
      <use xlink:href="#DejaVuSans-66" transform="translate(1581.628906 0)"/>
      <use xlink:href="#DejaVuSans-69" transform="translate(1616.833984 0)"/>
      <use xlink:href="#DejaVuSans-63" transform="translate(1644.617188 0)"/>
      <use xlink:href="#DejaVuSans-69" transform="translate(1699.597656 0)"/>
      <use xlink:href="#DejaVuSans-65" transform="translate(1727.380859 0)"/>
      <use xlink:href="#DejaVuSans-6e" transform="translate(1788.904297 0)"/>
      <use xlink:href="#DejaVuSans-74" transform="translate(1852.283203 0)"/>
      <use xlink:href="#DejaVuSans-4e" transform="translate(1891.492188 0)"/>
      <use xlink:href="#DejaVuSans-65" transform="translate(1966.296875 0)"/>
      <use xlink:href="#DejaVuSans-74" transform="translate(2027.820312 0)"/>
      <use xlink:href="#DejaVuSans-2d" transform="translate(2067.029297 0)"/>
      <use xlink:href="#DejaVuSans-42" transform="translate(2099.488281 0)"/>
      <use xlink:href="#DejaVuSans-30" transform="translate(2168.091797 0)"/>
      <use xlink:href="#DejaVuSans-20" transform="translate(2231.714844 0)"/>
      <use xlink:href="#DejaVuSans-6d" transform="translate(2263.501953 0)"/>
      <use xlink:href="#DejaVuSans-69" transform="translate(2360.914062 0)"/>
      <use xlink:href="#DejaVuSans-6e" transform="translate(2388.697266 0)"/>
      <use xlink:href="#DejaVuSans-75" transform="translate(2452.076172 0)"/>
      <use xlink:href="#DejaVuSans-73" transform="translate(2515.455078 0)"/>
      <use xlink:href="#DejaVuSans-20" transform="translate(2567.554688 0)"/>
      <use xlink:href="#DejaVuSans-63" transform="translate(2599.341797 0)"/>
      <use xlink:href="#DejaVuSans-6f" transform="translate(2654.322266 0)"/>
      <use xlink:href="#DejaVuSans-6d" transform="translate(2715.503906 0)"/>
      <use xlink:href="#DejaVuSans-70" transform="translate(2812.916016 0)"/>
      <use xlink:href="#DejaVuSans-61" transform="translate(2876.392578 0)"/>
      <use xlink:href="#DejaVuSans-72" transform="translate(2937.671875 0)"/>
      <use xlink:href="#DejaVuSans-61" transform="translate(2978.785156 0)"/>
      <use xlink:href="#DejaVuSans-74" transform="translate(3040.064453 0)"/>
      <use xlink:href="#DejaVuSans-6f" transform="translate(3079.273438 0)"/>
      <use xlink:href="#DejaVuSans-72" transform="translate(3140.455078 0)"/>
     </g>
    </g>
   </g>
   <g id="matplotlib.axis_2">
    <g id="ytick_1">
     <g id="line2d_15">
      <defs>
       <path id="m0fb2dec267" d="M 0 0 
L -3.5 0 
" style="stroke: #000000; stroke-width: 0.8"/>
      </defs>
      <g>
       <use xlink:href="#m0fb2dec267" x="262.751563" y="361.765969" style="stroke: #000000; stroke-width: 0.8"/>
      </g>
     </g>
     <g id="text_8">
      <!-- Image plus age/sex - Severe AUROC -->
      <g transform="translate(74.579688 365.565187) scale(0.1 -0.1)">
       <defs>
        <path id="DejaVuSans-49" d="M 628 4666 
L 1259 4666 
L 1259 0 
L 628 0 
L 628 4666 
z
" transform="scale(0.015625)"/>
        <path id="DejaVuSans-2f" d="M 1625 4666 
L 2156 4666 
L 531 -594 
L 0 -594 
L 1625 4666 
z
" transform="scale(0.015625)"/>
        <path id="DejaVuSans-78" d="M 3513 3500 
L 2247 1797 
L 3578 0 
L 2900 0 
L 1881 1375 
L 863 0 
L 184 0 
L 1544 1831 
L 300 3500 
L 978 3500 
L 1906 2253 
L 2834 3500 
L 3513 3500 
z
" transform="scale(0.015625)"/>
        <path id="DejaVuSans-53" d="M 3425 4513 
L 3425 3897 
Q 3066 4069 2747 4153 
Q 2428 4238 2131 4238 
Q 1616 4238 1336 4038 
Q 1056 3838 1056 3469 
Q 1056 3159 1242 3001 
Q 1428 2844 1947 2747 
L 2328 2669 
Q 3034 2534 3370 2195 
Q 3706 1856 3706 1288 
Q 3706 609 3251 259 
Q 2797 -91 1919 -91 
Q 1588 -91 1214 -16 
Q 841 59 441 206 
L 441 856 
Q 825 641 1194 531 
Q 1563 422 1919 422 
Q 2459 422 2753 634 
Q 3047 847 3047 1241 
Q 3047 1584 2836 1778 
Q 2625 1972 2144 2069 
L 1759 2144 
Q 1053 2284 737 2584 
Q 422 2884 422 3419 
Q 422 4038 858 4394 
Q 1294 4750 2059 4750 
Q 2388 4750 2728 4690 
Q 3069 4631 3425 4513 
z
" transform="scale(0.015625)"/>
        <path id="DejaVuSans-41" d="M 2188 4044 
L 1331 1722 
L 3047 1722 
L 2188 4044 
z
M 1831 4666 
L 2547 4666 
L 4325 0 
L 3669 0 
L 3244 1197 
L 1141 1197 
L 716 0 
L 50 0 
L 1831 4666 
z
" transform="scale(0.015625)"/>
        <path id="DejaVuSans-55" d="M 556 4666 
L 1191 4666 
L 1191 1831 
Q 1191 1081 1462 751 
Q 1734 422 2344 422 
Q 2950 422 3222 751 
Q 3494 1081 3494 1831 
L 3494 4666 
L 4128 4666 
L 4128 1753 
Q 4128 841 3676 375 
Q 3225 -91 2344 -91 
Q 1459 -91 1007 375 
Q 556 841 556 1753 
L 556 4666 
z
" transform="scale(0.015625)"/>
        <path id="DejaVuSans-52" d="M 2841 2188 
Q 3044 2119 3236 1894 
Q 3428 1669 3622 1275 
L 4263 0 
L 3584 0 
L 2988 1197 
Q 2756 1666 2539 1819 
Q 2322 1972 1947 1972 
L 1259 1972 
L 1259 0 
L 628 0 
L 628 4666 
L 2053 4666 
Q 2853 4666 3247 4331 
Q 3641 3997 3641 3322 
Q 3641 2881 3436 2590 
Q 3231 2300 2841 2188 
z
M 1259 4147 
L 1259 2491 
L 2053 2491 
Q 2509 2491 2742 2702 
Q 2975 2913 2975 3322 
Q 2975 3731 2742 3939 
Q 2509 4147 2053 4147 
L 1259 4147 
z
" transform="scale(0.015625)"/>
        <path id="DejaVuSans-4f" d="M 2522 4238 
Q 1834 4238 1429 3725 
Q 1025 3213 1025 2328 
Q 1025 1447 1429 934 
Q 1834 422 2522 422 
Q 3209 422 3611 934 
Q 4013 1447 4013 2328 
Q 4013 3213 3611 3725 
Q 3209 4238 2522 4238 
z
M 2522 4750 
Q 3503 4750 4090 4092 
Q 4678 3434 4678 2328 
Q 4678 1225 4090 567 
Q 3503 -91 2522 -91 
Q 1538 -91 948 565 
Q 359 1222 359 2328 
Q 359 3434 948 4092 
Q 1538 4750 2522 4750 
z
" transform="scale(0.015625)"/>
        <path id="DejaVuSans-43" d="M 4122 4306 
L 4122 3641 
Q 3803 3938 3442 4084 
Q 3081 4231 2675 4231 
Q 1875 4231 1450 3742 
Q 1025 3253 1025 2328 
Q 1025 1406 1450 917 
Q 1875 428 2675 428 
Q 3081 428 3442 575 
Q 3803 722 4122 1019 
L 4122 359 
Q 3791 134 3420 21 
Q 3050 -91 2638 -91 
Q 1578 -91 968 557 
Q 359 1206 359 2328 
Q 359 3453 968 4101 
Q 1578 4750 2638 4750 
Q 3056 4750 3426 4639 
Q 3797 4528 4122 4306 
z
" transform="scale(0.015625)"/>
       </defs>
       <use xlink:href="#DejaVuSans-49"/>
       <use xlink:href="#DejaVuSans-6d" transform="translate(29.492188 0)"/>
       <use xlink:href="#DejaVuSans-61" transform="translate(126.904297 0)"/>
       <use xlink:href="#DejaVuSans-67" transform="translate(188.183594 0)"/>
       <use xlink:href="#DejaVuSans-65" transform="translate(251.660156 0)"/>
       <use xlink:href="#DejaVuSans-20" transform="translate(313.183594 0)"/>
       <use xlink:href="#DejaVuSans-70" transform="translate(344.970703 0)"/>
       <use xlink:href="#DejaVuSans-6c" transform="translate(408.447266 0)"/>
       <use xlink:href="#DejaVuSans-75" transform="translate(436.230469 0)"/>
       <use xlink:href="#DejaVuSans-73" transform="translate(499.609375 0)"/>
       <use xlink:href="#DejaVuSans-20" transform="translate(551.708984 0)"/>
       <use xlink:href="#DejaVuSans-61" transform="translate(583.496094 0)"/>
       <use xlink:href="#DejaVuSans-67" transform="translate(644.775391 0)"/>
       <use xlink:href="#DejaVuSans-65" transform="translate(708.251953 0)"/>
       <use xlink:href="#DejaVuSans-2f" transform="translate(769.775391 0)"/>
       <use xlink:href="#DejaVuSans-73" transform="translate(803.466797 0)"/>
       <use xlink:href="#DejaVuSans-65" transform="translate(855.566406 0)"/>
       <use xlink:href="#DejaVuSans-78" transform="translate(915.339844 0)"/>
       <use xlink:href="#DejaVuSans-20" transform="translate(974.519531 0)"/>
       <use xlink:href="#DejaVuSans-2d" transform="translate(1006.306641 0)"/>
       <use xlink:href="#DejaVuSans-20" transform="translate(1042.390625 0)"/>
       <use xlink:href="#DejaVuSans-53" transform="translate(1074.177734 0)"/>
       <use xlink:href="#DejaVuSans-65" transform="translate(1137.654297 0)"/>
       <use xlink:href="#DejaVuSans-76" transform="translate(1199.177734 0)"/>
       <use xlink:href="#DejaVuSans-65" transform="translate(1258.357422 0)"/>
       <use xlink:href="#DejaVuSans-72" transform="translate(1319.880859 0)"/>
       <use xlink:href="#DejaVuSans-65" transform="translate(1358.744141 0)"/>
       <use xlink:href="#DejaVuSans-20" transform="translate(1420.267578 0)"/>
       <use xlink:href="#DejaVuSans-41" transform="translate(1452.054688 0)"/>
       <use xlink:href="#DejaVuSans-55" transform="translate(1520.462891 0)"/>
       <use xlink:href="#DejaVuSans-52" transform="translate(1593.65625 0)"/>
       <use xlink:href="#DejaVuSans-4f" transform="translate(1663.138672 0)"/>
       <use xlink:href="#DejaVuSans-43" transform="translate(1741.849609 0)"/>
      </g>
     </g>
    </g>
    <g id="ytick_2">
     <g id="line2d_16">
      <g>
       <use xlink:href="#m0fb2dec267" x="262.751563" y="340.261969" style="stroke: #000000; stroke-width: 0.8"/>
      </g>
     </g>
     <g id="text_9">
      <!-- Image plus age/sex - QWK -->
      <g transform="translate(124.015625 344.061187) scale(0.1 -0.1)">
       <defs>
        <path id="DejaVuSans-51" d="M 2522 4238 
Q 1834 4238 1429 3725 
Q 1025 3213 1025 2328 
Q 1025 1447 1429 934 
Q 1834 422 2522 422 
Q 3209 422 3611 934 
Q 4013 1447 4013 2328 
Q 4013 3213 3611 3725 
Q 3209 4238 2522 4238 
z
M 3406 84 
L 4238 -825 
L 3475 -825 
L 2784 -78 
Q 2681 -84 2626 -87 
Q 2572 -91 2522 -91 
Q 1538 -91 948 567 
Q 359 1225 359 2328 
Q 359 3434 948 4092 
Q 1538 4750 2522 4750 
Q 3503 4750 4090 4092 
Q 4678 3434 4678 2328 
Q 4678 1516 4351 937 
Q 4025 359 3406 84 
z
" transform="scale(0.015625)"/>
        <path id="DejaVuSans-57" d="M 213 4666 
L 850 4666 
L 1831 722 
L 2809 4666 
L 3519 4666 
L 4500 722 
L 5478 4666 
L 6119 4666 
L 4947 0 
L 4153 0 
L 3169 4050 
L 2175 0 
L 1381 0 
L 213 4666 
z
" transform="scale(0.015625)"/>
        <path id="DejaVuSans-4b" d="M 628 4666 
L 1259 4666 
L 1259 2694 
L 3353 4666 
L 4166 4666 
L 1850 2491 
L 4331 0 
L 3500 0 
L 1259 2247 
L 1259 0 
L 628 0 
L 628 4666 
z
" transform="scale(0.015625)"/>
       </defs>
       <use xlink:href="#DejaVuSans-49"/>
       <use xlink:href="#DejaVuSans-6d" transform="translate(29.492188 0)"/>
       <use xlink:href="#DejaVuSans-61" transform="translate(126.904297 0)"/>
       <use xlink:href="#DejaVuSans-67" transform="translate(188.183594 0)"/>
       <use xlink:href="#DejaVuSans-65" transform="translate(251.660156 0)"/>
       <use xlink:href="#DejaVuSans-20" transform="translate(313.183594 0)"/>
       <use xlink:href="#DejaVuSans-70" transform="translate(344.970703 0)"/>
       <use xlink:href="#DejaVuSans-6c" transform="translate(408.447266 0)"/>
       <use xlink:href="#DejaVuSans-75" transform="translate(436.230469 0)"/>
       <use xlink:href="#DejaVuSans-73" transform="translate(499.609375 0)"/>
       <use xlink:href="#DejaVuSans-20" transform="translate(551.708984 0)"/>
       <use xlink:href="#DejaVuSans-61" transform="translate(583.496094 0)"/>
       <use xlink:href="#DejaVuSans-67" transform="translate(644.775391 0)"/>
       <use xlink:href="#DejaVuSans-65" transform="translate(708.251953 0)"/>
       <use xlink:href="#DejaVuSans-2f" transform="translate(769.775391 0)"/>
       <use xlink:href="#DejaVuSans-73" transform="translate(803.466797 0)"/>
       <use xlink:href="#DejaVuSans-65" transform="translate(855.566406 0)"/>
       <use xlink:href="#DejaVuSans-78" transform="translate(915.339844 0)"/>
       <use xlink:href="#DejaVuSans-20" transform="translate(974.519531 0)"/>
       <use xlink:href="#DejaVuSans-2d" transform="translate(1006.306641 0)"/>
       <use xlink:href="#DejaVuSans-20" transform="translate(1042.390625 0)"/>
       <use xlink:href="#DejaVuSans-51" transform="translate(1074.177734 0)"/>
       <use xlink:href="#DejaVuSans-57" transform="translate(1152.888672 0)"/>
       <use xlink:href="#DejaVuSans-4b" transform="translate(1251.765625 0)"/>
      </g>
     </g>
    </g>
    <g id="ytick_3">
     <g id="line2d_17">
      <g>
       <use xlink:href="#m0fb2dec267" x="262.751563" y="318.757969" style="stroke: #000000; stroke-width: 0.8"/>
      </g>
     </g>
     <g id="text_10">
      <!-- Image plus age/sex - Balanced accuracy -->
      <g transform="translate(53.803125 322.557187) scale(0.1 -0.1)">
       <defs>
        <path id="DejaVuSans-79" d="M 2059 -325 
Q 1816 -950 1584 -1140 
Q 1353 -1331 966 -1331 
L 506 -1331 
L 506 -850 
L 844 -850 
Q 1081 -850 1212 -737 
Q 1344 -625 1503 -206 
L 1606 56 
L 191 3500 
L 800 3500 
L 1894 763 
L 2988 3500 
L 3597 3500 
L 2059 -325 
z
" transform="scale(0.015625)"/>
       </defs>
       <use xlink:href="#DejaVuSans-49"/>
       <use xlink:href="#DejaVuSans-6d" transform="translate(29.492188 0)"/>
       <use xlink:href="#DejaVuSans-61" transform="translate(126.904297 0)"/>
       <use xlink:href="#DejaVuSans-67" transform="translate(188.183594 0)"/>
       <use xlink:href="#DejaVuSans-65" transform="translate(251.660156 0)"/>
       <use xlink:href="#DejaVuSans-20" transform="translate(313.183594 0)"/>
       <use xlink:href="#DejaVuSans-70" transform="translate(344.970703 0)"/>
       <use xlink:href="#DejaVuSans-6c" transform="translate(408.447266 0)"/>
       <use xlink:href="#DejaVuSans-75" transform="translate(436.230469 0)"/>
       <use xlink:href="#DejaVuSans-73" transform="translate(499.609375 0)"/>
       <use xlink:href="#DejaVuSans-20" transform="translate(551.708984 0)"/>
       <use xlink:href="#DejaVuSans-61" transform="translate(583.496094 0)"/>
       <use xlink:href="#DejaVuSans-67" transform="translate(644.775391 0)"/>
       <use xlink:href="#DejaVuSans-65" transform="translate(708.251953 0)"/>
       <use xlink:href="#DejaVuSans-2f" transform="translate(769.775391 0)"/>
       <use xlink:href="#DejaVuSans-73" transform="translate(803.466797 0)"/>
       <use xlink:href="#DejaVuSans-65" transform="translate(855.566406 0)"/>
       <use xlink:href="#DejaVuSans-78" transform="translate(915.339844 0)"/>
       <use xlink:href="#DejaVuSans-20" transform="translate(974.519531 0)"/>
       <use xlink:href="#DejaVuSans-2d" transform="translate(1006.306641 0)"/>
       <use xlink:href="#DejaVuSans-20" transform="translate(1042.390625 0)"/>
       <use xlink:href="#DejaVuSans-42" transform="translate(1074.177734 0)"/>
       <use xlink:href="#DejaVuSans-61" transform="translate(1142.78125 0)"/>
       <use xlink:href="#DejaVuSans-6c" transform="translate(1204.060547 0)"/>
       <use xlink:href="#DejaVuSans-61" transform="translate(1231.84375 0)"/>
       <use xlink:href="#DejaVuSans-6e" transform="translate(1293.123047 0)"/>
       <use xlink:href="#DejaVuSans-63" transform="translate(1356.501953 0)"/>
       <use xlink:href="#DejaVuSans-65" transform="translate(1411.482422 0)"/>
       <use xlink:href="#DejaVuSans-64" transform="translate(1473.005859 0)"/>
       <use xlink:href="#DejaVuSans-20" transform="translate(1536.482422 0)"/>
       <use xlink:href="#DejaVuSans-61" transform="translate(1568.269531 0)"/>
       <use xlink:href="#DejaVuSans-63" transform="translate(1629.548828 0)"/>
       <use xlink:href="#DejaVuSans-63" transform="translate(1684.529297 0)"/>
       <use xlink:href="#DejaVuSans-75" transform="translate(1739.509766 0)"/>
       <use xlink:href="#DejaVuSans-72" transform="translate(1802.888672 0)"/>
       <use xlink:href="#DejaVuSans-61" transform="translate(1844.001953 0)"/>
       <use xlink:href="#DejaVuSans-63" transform="translate(1905.28125 0)"/>
       <use xlink:href="#DejaVuSans-79" transform="translate(1960.261719 0)"/>
      </g>
     </g>
    </g>
    <g id="ytick_4">
     <g id="line2d_18">
      <g>
       <use xlink:href="#m0fb2dec267" x="262.751563" y="297.253969" style="stroke: #000000; stroke-width: 0.8"/>
      </g>
     </g>
     <g id="text_11">
      <!-- Image plus age/sex - Macro-F1 -->
      <g transform="translate(102.164063 301.053187) scale(0.1 -0.1)">
       <defs>
        <path id="DejaVuSans-4d" d="M 628 4666 
L 1569 4666 
L 2759 1491 
L 3956 4666 
L 4897 4666 
L 4897 0 
L 4281 0 
L 4281 4097 
L 3078 897 
L 2444 897 
L 1241 4097 
L 1241 0 
L 628 0 
L 628 4666 
z
" transform="scale(0.015625)"/>
        <path id="DejaVuSans-46" d="M 628 4666 
L 3309 4666 
L 3309 4134 
L 1259 4134 
L 1259 2759 
L 3109 2759 
L 3109 2228 
L 1259 2228 
L 1259 0 
L 628 0 
L 628 4666 
z
" transform="scale(0.015625)"/>
       </defs>
       <use xlink:href="#DejaVuSans-49"/>
       <use xlink:href="#DejaVuSans-6d" transform="translate(29.492188 0)"/>
       <use xlink:href="#DejaVuSans-61" transform="translate(126.904297 0)"/>
       <use xlink:href="#DejaVuSans-67" transform="translate(188.183594 0)"/>
       <use xlink:href="#DejaVuSans-65" transform="translate(251.660156 0)"/>
       <use xlink:href="#DejaVuSans-20" transform="translate(313.183594 0)"/>
       <use xlink:href="#DejaVuSans-70" transform="translate(344.970703 0)"/>
       <use xlink:href="#DejaVuSans-6c" transform="translate(408.447266 0)"/>
       <use xlink:href="#DejaVuSans-75" transform="translate(436.230469 0)"/>
       <use xlink:href="#DejaVuSans-73" transform="translate(499.609375 0)"/>
       <use xlink:href="#DejaVuSans-20" transform="translate(551.708984 0)"/>
       <use xlink:href="#DejaVuSans-61" transform="translate(583.496094 0)"/>
       <use xlink:href="#DejaVuSans-67" transform="translate(644.775391 0)"/>
       <use xlink:href="#DejaVuSans-65" transform="translate(708.251953 0)"/>
       <use xlink:href="#DejaVuSans-2f" transform="translate(769.775391 0)"/>
       <use xlink:href="#DejaVuSans-73" transform="translate(803.466797 0)"/>
       <use xlink:href="#DejaVuSans-65" transform="translate(855.566406 0)"/>
       <use xlink:href="#DejaVuSans-78" transform="translate(915.339844 0)"/>
       <use xlink:href="#DejaVuSans-20" transform="translate(974.519531 0)"/>
       <use xlink:href="#DejaVuSans-2d" transform="translate(1006.306641 0)"/>
       <use xlink:href="#DejaVuSans-20" transform="translate(1042.390625 0)"/>
       <use xlink:href="#DejaVuSans-4d" transform="translate(1074.177734 0)"/>
       <use xlink:href="#DejaVuSans-61" transform="translate(1160.457031 0)"/>
       <use xlink:href="#DejaVuSans-63" transform="translate(1221.736328 0)"/>
       <use xlink:href="#DejaVuSans-72" transform="translate(1276.716797 0)"/>
       <use xlink:href="#DejaVuSans-6f" transform="translate(1315.580078 0)"/>
       <use xlink:href="#DejaVuSans-2d" transform="translate(1378.636719 0)"/>
       <use xlink:href="#DejaVuSans-46" transform="translate(1414.720703 0)"/>
       <use xlink:href="#DejaVuSans-31" transform="translate(1472.240234 0)"/>
      </g>
     </g>
    </g>
    <g id="ytick_5">
     <g id="line2d_19">
      <g>
       <use xlink:href="#m0fb2dec267" x="262.751563" y="275.749969" style="stroke: #000000; stroke-width: 0.8"/>
      </g>
     </g>
     <g id="text_12">
      <!-- Whole-image ResNet50 - Severe AUROC -->
      <g transform="translate(54.684375 279.549187) scale(0.1 -0.1)">
       <defs>
        <path id="DejaVuSans-68" d="M 3513 2113 
L 3513 0 
L 2938 0 
L 2938 2094 
Q 2938 2591 2744 2837 
Q 2550 3084 2163 3084 
Q 1697 3084 1428 2787 
Q 1159 2491 1159 1978 
L 1159 0 
L 581 0 
L 581 4863 
L 1159 4863 
L 1159 2956 
Q 1366 3272 1645 3428 
Q 1925 3584 2291 3584 
Q 2894 3584 3203 3211 
Q 3513 2838 3513 2113 
z
" transform="scale(0.015625)"/>
       </defs>
       <use xlink:href="#DejaVuSans-57"/>
       <use xlink:href="#DejaVuSans-68" transform="translate(98.876953 0)"/>
       <use xlink:href="#DejaVuSans-6f" transform="translate(162.255859 0)"/>
       <use xlink:href="#DejaVuSans-6c" transform="translate(223.4375 0)"/>
       <use xlink:href="#DejaVuSans-65" transform="translate(251.220703 0)"/>
       <use xlink:href="#DejaVuSans-2d" transform="translate(312.744141 0)"/>
       <use xlink:href="#DejaVuSans-69" transform="translate(348.828125 0)"/>
       <use xlink:href="#DejaVuSans-6d" transform="translate(376.611328 0)"/>
       <use xlink:href="#DejaVuSans-61" transform="translate(474.023438 0)"/>
       <use xlink:href="#DejaVuSans-67" transform="translate(535.302734 0)"/>
       <use xlink:href="#DejaVuSans-65" transform="translate(598.779297 0)"/>
       <use xlink:href="#DejaVuSans-20" transform="translate(660.302734 0)"/>
       <use xlink:href="#DejaVuSans-52" transform="translate(692.089844 0)"/>
       <use xlink:href="#DejaVuSans-65" transform="translate(757.072266 0)"/>
       <use xlink:href="#DejaVuSans-73" transform="translate(818.595703 0)"/>
       <use xlink:href="#DejaVuSans-4e" transform="translate(870.695312 0)"/>
       <use xlink:href="#DejaVuSans-65" transform="translate(945.5 0)"/>
       <use xlink:href="#DejaVuSans-74" transform="translate(1007.023438 0)"/>
       <use xlink:href="#DejaVuSans-35" transform="translate(1046.232422 0)"/>
       <use xlink:href="#DejaVuSans-30" transform="translate(1109.855469 0)"/>
       <use xlink:href="#DejaVuSans-20" transform="translate(1173.478516 0)"/>
       <use xlink:href="#DejaVuSans-2d" transform="translate(1205.265625 0)"/>
       <use xlink:href="#DejaVuSans-20" transform="translate(1241.349609 0)"/>
       <use xlink:href="#DejaVuSans-53" transform="translate(1273.136719 0)"/>
       <use xlink:href="#DejaVuSans-65" transform="translate(1336.613281 0)"/>
       <use xlink:href="#DejaVuSans-76" transform="translate(1398.136719 0)"/>
       <use xlink:href="#DejaVuSans-65" transform="translate(1457.316406 0)"/>
       <use xlink:href="#DejaVuSans-72" transform="translate(1518.839844 0)"/>
       <use xlink:href="#DejaVuSans-65" transform="translate(1557.703125 0)"/>
       <use xlink:href="#DejaVuSans-20" transform="translate(1619.226562 0)"/>
       <use xlink:href="#DejaVuSans-41" transform="translate(1651.013672 0)"/>
       <use xlink:href="#DejaVuSans-55" transform="translate(1719.421875 0)"/>
       <use xlink:href="#DejaVuSans-52" transform="translate(1792.615234 0)"/>
       <use xlink:href="#DejaVuSans-4f" transform="translate(1862.097656 0)"/>
       <use xlink:href="#DejaVuSans-43" transform="translate(1940.808594 0)"/>
      </g>
     </g>
    </g>
    <g id="ytick_6">
     <g id="line2d_20">
      <g>
       <use xlink:href="#m0fb2dec267" x="262.751563" y="254.245969" style="stroke: #000000; stroke-width: 0.8"/>
      </g>
     </g>
     <g id="text_13">
      <!-- Whole-image ResNet50 - QWK -->
      <g transform="translate(104.120313 258.045187) scale(0.1 -0.1)">
       <use xlink:href="#DejaVuSans-57"/>
       <use xlink:href="#DejaVuSans-68" transform="translate(98.876953 0)"/>
       <use xlink:href="#DejaVuSans-6f" transform="translate(162.255859 0)"/>
       <use xlink:href="#DejaVuSans-6c" transform="translate(223.4375 0)"/>
       <use xlink:href="#DejaVuSans-65" transform="translate(251.220703 0)"/>
       <use xlink:href="#DejaVuSans-2d" transform="translate(312.744141 0)"/>
       <use xlink:href="#DejaVuSans-69" transform="translate(348.828125 0)"/>
       <use xlink:href="#DejaVuSans-6d" transform="translate(376.611328 0)"/>
       <use xlink:href="#DejaVuSans-61" transform="translate(474.023438 0)"/>
       <use xlink:href="#DejaVuSans-67" transform="translate(535.302734 0)"/>
       <use xlink:href="#DejaVuSans-65" transform="translate(598.779297 0)"/>
       <use xlink:href="#DejaVuSans-20" transform="translate(660.302734 0)"/>
       <use xlink:href="#DejaVuSans-52" transform="translate(692.089844 0)"/>
       <use xlink:href="#DejaVuSans-65" transform="translate(757.072266 0)"/>
       <use xlink:href="#DejaVuSans-73" transform="translate(818.595703 0)"/>
       <use xlink:href="#DejaVuSans-4e" transform="translate(870.695312 0)"/>
       <use xlink:href="#DejaVuSans-65" transform="translate(945.5 0)"/>
       <use xlink:href="#DejaVuSans-74" transform="translate(1007.023438 0)"/>
       <use xlink:href="#DejaVuSans-35" transform="translate(1046.232422 0)"/>
       <use xlink:href="#DejaVuSans-30" transform="translate(1109.855469 0)"/>
       <use xlink:href="#DejaVuSans-20" transform="translate(1173.478516 0)"/>
       <use xlink:href="#DejaVuSans-2d" transform="translate(1205.265625 0)"/>
       <use xlink:href="#DejaVuSans-20" transform="translate(1241.349609 0)"/>
       <use xlink:href="#DejaVuSans-51" transform="translate(1273.136719 0)"/>
       <use xlink:href="#DejaVuSans-57" transform="translate(1351.847656 0)"/>
       <use xlink:href="#DejaVuSans-4b" transform="translate(1450.724609 0)"/>
      </g>
     </g>
    </g>
    <g id="ytick_7">
     <g id="line2d_21">
      <g>
       <use xlink:href="#m0fb2dec267" x="262.751563" y="232.741969" style="stroke: #000000; stroke-width: 0.8"/>
      </g>
     </g>
     <g id="text_14">
      <!-- Whole-image ResNet50 - Balanced accuracy -->
      <g transform="translate(33.907813 236.541187) scale(0.1 -0.1)">
       <use xlink:href="#DejaVuSans-57"/>
       <use xlink:href="#DejaVuSans-68" transform="translate(98.876953 0)"/>
       <use xlink:href="#DejaVuSans-6f" transform="translate(162.255859 0)"/>
       <use xlink:href="#DejaVuSans-6c" transform="translate(223.4375 0)"/>
       <use xlink:href="#DejaVuSans-65" transform="translate(251.220703 0)"/>
       <use xlink:href="#DejaVuSans-2d" transform="translate(312.744141 0)"/>
       <use xlink:href="#DejaVuSans-69" transform="translate(348.828125 0)"/>
       <use xlink:href="#DejaVuSans-6d" transform="translate(376.611328 0)"/>
       <use xlink:href="#DejaVuSans-61" transform="translate(474.023438 0)"/>
       <use xlink:href="#DejaVuSans-67" transform="translate(535.302734 0)"/>
       <use xlink:href="#DejaVuSans-65" transform="translate(598.779297 0)"/>
       <use xlink:href="#DejaVuSans-20" transform="translate(660.302734 0)"/>
       <use xlink:href="#DejaVuSans-52" transform="translate(692.089844 0)"/>
       <use xlink:href="#DejaVuSans-65" transform="translate(757.072266 0)"/>
       <use xlink:href="#DejaVuSans-73" transform="translate(818.595703 0)"/>
       <use xlink:href="#DejaVuSans-4e" transform="translate(870.695312 0)"/>
       <use xlink:href="#DejaVuSans-65" transform="translate(945.5 0)"/>
       <use xlink:href="#DejaVuSans-74" transform="translate(1007.023438 0)"/>
       <use xlink:href="#DejaVuSans-35" transform="translate(1046.232422 0)"/>
       <use xlink:href="#DejaVuSans-30" transform="translate(1109.855469 0)"/>
       <use xlink:href="#DejaVuSans-20" transform="translate(1173.478516 0)"/>
       <use xlink:href="#DejaVuSans-2d" transform="translate(1205.265625 0)"/>
       <use xlink:href="#DejaVuSans-20" transform="translate(1241.349609 0)"/>
       <use xlink:href="#DejaVuSans-42" transform="translate(1273.136719 0)"/>
       <use xlink:href="#DejaVuSans-61" transform="translate(1341.740234 0)"/>
       <use xlink:href="#DejaVuSans-6c" transform="translate(1403.019531 0)"/>
       <use xlink:href="#DejaVuSans-61" transform="translate(1430.802734 0)"/>
       <use xlink:href="#DejaVuSans-6e" transform="translate(1492.082031 0)"/>
       <use xlink:href="#DejaVuSans-63" transform="translate(1555.460938 0)"/>
       <use xlink:href="#DejaVuSans-65" transform="translate(1610.441406 0)"/>
       <use xlink:href="#DejaVuSans-64" transform="translate(1671.964844 0)"/>
       <use xlink:href="#DejaVuSans-20" transform="translate(1735.441406 0)"/>
       <use xlink:href="#DejaVuSans-61" transform="translate(1767.228516 0)"/>
       <use xlink:href="#DejaVuSans-63" transform="translate(1828.507812 0)"/>
       <use xlink:href="#DejaVuSans-63" transform="translate(1883.488281 0)"/>
       <use xlink:href="#DejaVuSans-75" transform="translate(1938.46875 0)"/>
       <use xlink:href="#DejaVuSans-72" transform="translate(2001.847656 0)"/>
       <use xlink:href="#DejaVuSans-61" transform="translate(2042.960938 0)"/>
       <use xlink:href="#DejaVuSans-63" transform="translate(2104.240234 0)"/>
       <use xlink:href="#DejaVuSans-79" transform="translate(2159.220703 0)"/>
      </g>
     </g>
    </g>
    <g id="ytick_8">
     <g id="line2d_22">
      <g>
       <use xlink:href="#m0fb2dec267" x="262.751563" y="211.237969" style="stroke: #000000; stroke-width: 0.8"/>
      </g>
     </g>
     <g id="text_15">
      <!-- Whole-image ResNet50 - Macro-F1 -->
      <g transform="translate(82.26875 215.037187) scale(0.1 -0.1)">
       <use xlink:href="#DejaVuSans-57"/>
       <use xlink:href="#DejaVuSans-68" transform="translate(98.876953 0)"/>
       <use xlink:href="#DejaVuSans-6f" transform="translate(162.255859 0)"/>
       <use xlink:href="#DejaVuSans-6c" transform="translate(223.4375 0)"/>
       <use xlink:href="#DejaVuSans-65" transform="translate(251.220703 0)"/>
       <use xlink:href="#DejaVuSans-2d" transform="translate(312.744141 0)"/>
       <use xlink:href="#DejaVuSans-69" transform="translate(348.828125 0)"/>
       <use xlink:href="#DejaVuSans-6d" transform="translate(376.611328 0)"/>
       <use xlink:href="#DejaVuSans-61" transform="translate(474.023438 0)"/>
       <use xlink:href="#DejaVuSans-67" transform="translate(535.302734 0)"/>
       <use xlink:href="#DejaVuSans-65" transform="translate(598.779297 0)"/>
       <use xlink:href="#DejaVuSans-20" transform="translate(660.302734 0)"/>
       <use xlink:href="#DejaVuSans-52" transform="translate(692.089844 0)"/>
       <use xlink:href="#DejaVuSans-65" transform="translate(757.072266 0)"/>
       <use xlink:href="#DejaVuSans-73" transform="translate(818.595703 0)"/>
       <use xlink:href="#DejaVuSans-4e" transform="translate(870.695312 0)"/>
       <use xlink:href="#DejaVuSans-65" transform="translate(945.5 0)"/>
       <use xlink:href="#DejaVuSans-74" transform="translate(1007.023438 0)"/>
       <use xlink:href="#DejaVuSans-35" transform="translate(1046.232422 0)"/>
       <use xlink:href="#DejaVuSans-30" transform="translate(1109.855469 0)"/>
       <use xlink:href="#DejaVuSans-20" transform="translate(1173.478516 0)"/>
       <use xlink:href="#DejaVuSans-2d" transform="translate(1205.265625 0)"/>
       <use xlink:href="#DejaVuSans-20" transform="translate(1241.349609 0)"/>
       <use xlink:href="#DejaVuSans-4d" transform="translate(1273.136719 0)"/>
       <use xlink:href="#DejaVuSans-61" transform="translate(1359.416016 0)"/>
       <use xlink:href="#DejaVuSans-63" transform="translate(1420.695312 0)"/>
       <use xlink:href="#DejaVuSans-72" transform="translate(1475.675781 0)"/>
       <use xlink:href="#DejaVuSans-6f" transform="translate(1514.539062 0)"/>
       <use xlink:href="#DejaVuSans-2d" transform="translate(1577.595703 0)"/>
       <use xlink:href="#DejaVuSans-46" transform="translate(1613.679688 0)"/>
       <use xlink:href="#DejaVuSans-31" transform="translate(1671.199219 0)"/>
      </g>
     </g>
    </g>
    <g id="ytick_9">
     <g id="line2d_23">
      <g>
       <use xlink:href="#m0fb2dec267" x="262.751563" y="189.733969" style="stroke: #000000; stroke-width: 0.8"/>
      </g>
     </g>
     <g id="text_16">
      <!-- Age/sex guardrail - Severe AUROC -->
      <g transform="translate(84.145313 193.533187) scale(0.1 -0.1)">
       <use xlink:href="#DejaVuSans-41"/>
       <use xlink:href="#DejaVuSans-67" transform="translate(68.408203 0)"/>
       <use xlink:href="#DejaVuSans-65" transform="translate(131.884766 0)"/>
       <use xlink:href="#DejaVuSans-2f" transform="translate(193.408203 0)"/>
       <use xlink:href="#DejaVuSans-73" transform="translate(227.099609 0)"/>
       <use xlink:href="#DejaVuSans-65" transform="translate(279.199219 0)"/>
       <use xlink:href="#DejaVuSans-78" transform="translate(338.972656 0)"/>
       <use xlink:href="#DejaVuSans-20" transform="translate(398.152344 0)"/>
       <use xlink:href="#DejaVuSans-67" transform="translate(429.939453 0)"/>
       <use xlink:href="#DejaVuSans-75" transform="translate(493.416016 0)"/>
       <use xlink:href="#DejaVuSans-61" transform="translate(556.794922 0)"/>
       <use xlink:href="#DejaVuSans-72" transform="translate(618.074219 0)"/>
       <use xlink:href="#DejaVuSans-64" transform="translate(657.4375 0)"/>
       <use xlink:href="#DejaVuSans-72" transform="translate(720.914062 0)"/>
       <use xlink:href="#DejaVuSans-61" transform="translate(762.027344 0)"/>
       <use xlink:href="#DejaVuSans-69" transform="translate(823.306641 0)"/>
       <use xlink:href="#DejaVuSans-6c" transform="translate(851.089844 0)"/>
       <use xlink:href="#DejaVuSans-20" transform="translate(878.873047 0)"/>
       <use xlink:href="#DejaVuSans-2d" transform="translate(910.660156 0)"/>
       <use xlink:href="#DejaVuSans-20" transform="translate(946.744141 0)"/>
       <use xlink:href="#DejaVuSans-53" transform="translate(978.53125 0)"/>
       <use xlink:href="#DejaVuSans-65" transform="translate(1042.007812 0)"/>
       <use xlink:href="#DejaVuSans-76" transform="translate(1103.53125 0)"/>
       <use xlink:href="#DejaVuSans-65" transform="translate(1162.710938 0)"/>
       <use xlink:href="#DejaVuSans-72" transform="translate(1224.234375 0)"/>
       <use xlink:href="#DejaVuSans-65" transform="translate(1263.097656 0)"/>
       <use xlink:href="#DejaVuSans-20" transform="translate(1324.621094 0)"/>
       <use xlink:href="#DejaVuSans-41" transform="translate(1356.408203 0)"/>
       <use xlink:href="#DejaVuSans-55" transform="translate(1424.816406 0)"/>
       <use xlink:href="#DejaVuSans-52" transform="translate(1498.009766 0)"/>
       <use xlink:href="#DejaVuSans-4f" transform="translate(1567.492188 0)"/>
       <use xlink:href="#DejaVuSans-43" transform="translate(1646.203125 0)"/>
      </g>
     </g>
    </g>
    <g id="ytick_10">
     <g id="line2d_24">
      <g>
       <use xlink:href="#m0fb2dec267" x="262.751563" y="168.229969" style="stroke: #000000; stroke-width: 0.8"/>
      </g>
     </g>
     <g id="text_17">
      <!-- Age/sex guardrail - QWK -->
      <g transform="translate(133.58125 172.029187) scale(0.1 -0.1)">
       <use xlink:href="#DejaVuSans-41"/>
       <use xlink:href="#DejaVuSans-67" transform="translate(68.408203 0)"/>
       <use xlink:href="#DejaVuSans-65" transform="translate(131.884766 0)"/>
       <use xlink:href="#DejaVuSans-2f" transform="translate(193.408203 0)"/>
       <use xlink:href="#DejaVuSans-73" transform="translate(227.099609 0)"/>
       <use xlink:href="#DejaVuSans-65" transform="translate(279.199219 0)"/>
       <use xlink:href="#DejaVuSans-78" transform="translate(338.972656 0)"/>
       <use xlink:href="#DejaVuSans-20" transform="translate(398.152344 0)"/>
       <use xlink:href="#DejaVuSans-67" transform="translate(429.939453 0)"/>
       <use xlink:href="#DejaVuSans-75" transform="translate(493.416016 0)"/>
       <use xlink:href="#DejaVuSans-61" transform="translate(556.794922 0)"/>
       <use xlink:href="#DejaVuSans-72" transform="translate(618.074219 0)"/>
       <use xlink:href="#DejaVuSans-64" transform="translate(657.4375 0)"/>
       <use xlink:href="#DejaVuSans-72" transform="translate(720.914062 0)"/>
       <use xlink:href="#DejaVuSans-61" transform="translate(762.027344 0)"/>
       <use xlink:href="#DejaVuSans-69" transform="translate(823.306641 0)"/>
       <use xlink:href="#DejaVuSans-6c" transform="translate(851.089844 0)"/>
       <use xlink:href="#DejaVuSans-20" transform="translate(878.873047 0)"/>
       <use xlink:href="#DejaVuSans-2d" transform="translate(910.660156 0)"/>
       <use xlink:href="#DejaVuSans-20" transform="translate(946.744141 0)"/>
       <use xlink:href="#DejaVuSans-51" transform="translate(978.53125 0)"/>
       <use xlink:href="#DejaVuSans-57" transform="translate(1057.242188 0)"/>
       <use xlink:href="#DejaVuSans-4b" transform="translate(1156.119141 0)"/>
      </g>
     </g>
    </g>
    <g id="ytick_11">
     <g id="line2d_25">
      <g>
       <use xlink:href="#m0fb2dec267" x="262.751563" y="146.725969" style="stroke: #000000; stroke-width: 0.8"/>
      </g>
     </g>
     <g id="text_18">
      <!-- Age/sex guardrail - Balanced accuracy -->
      <g transform="translate(63.36875 150.525187) scale(0.1 -0.1)">
       <use xlink:href="#DejaVuSans-41"/>
       <use xlink:href="#DejaVuSans-67" transform="translate(68.408203 0)"/>
       <use xlink:href="#DejaVuSans-65" transform="translate(131.884766 0)"/>
       <use xlink:href="#DejaVuSans-2f" transform="translate(193.408203 0)"/>
       <use xlink:href="#DejaVuSans-73" transform="translate(227.099609 0)"/>
       <use xlink:href="#DejaVuSans-65" transform="translate(279.199219 0)"/>
       <use xlink:href="#DejaVuSans-78" transform="translate(338.972656 0)"/>
       <use xlink:href="#DejaVuSans-20" transform="translate(398.152344 0)"/>
       <use xlink:href="#DejaVuSans-67" transform="translate(429.939453 0)"/>
       <use xlink:href="#DejaVuSans-75" transform="translate(493.416016 0)"/>
       <use xlink:href="#DejaVuSans-61" transform="translate(556.794922 0)"/>
       <use xlink:href="#DejaVuSans-72" transform="translate(618.074219 0)"/>
       <use xlink:href="#DejaVuSans-64" transform="translate(657.4375 0)"/>
       <use xlink:href="#DejaVuSans-72" transform="translate(720.914062 0)"/>
       <use xlink:href="#DejaVuSans-61" transform="translate(762.027344 0)"/>
       <use xlink:href="#DejaVuSans-69" transform="translate(823.306641 0)"/>
       <use xlink:href="#DejaVuSans-6c" transform="translate(851.089844 0)"/>
       <use xlink:href="#DejaVuSans-20" transform="translate(878.873047 0)"/>
       <use xlink:href="#DejaVuSans-2d" transform="translate(910.660156 0)"/>
       <use xlink:href="#DejaVuSans-20" transform="translate(946.744141 0)"/>
       <use xlink:href="#DejaVuSans-42" transform="translate(978.53125 0)"/>
       <use xlink:href="#DejaVuSans-61" transform="translate(1047.134766 0)"/>
       <use xlink:href="#DejaVuSans-6c" transform="translate(1108.414062 0)"/>
       <use xlink:href="#DejaVuSans-61" transform="translate(1136.197266 0)"/>
       <use xlink:href="#DejaVuSans-6e" transform="translate(1197.476562 0)"/>
       <use xlink:href="#DejaVuSans-63" transform="translate(1260.855469 0)"/>
       <use xlink:href="#DejaVuSans-65" transform="translate(1315.835938 0)"/>
       <use xlink:href="#DejaVuSans-64" transform="translate(1377.359375 0)"/>
       <use xlink:href="#DejaVuSans-20" transform="translate(1440.835938 0)"/>
       <use xlink:href="#DejaVuSans-61" transform="translate(1472.623047 0)"/>
       <use xlink:href="#DejaVuSans-63" transform="translate(1533.902344 0)"/>
       <use xlink:href="#DejaVuSans-63" transform="translate(1588.882812 0)"/>
       <use xlink:href="#DejaVuSans-75" transform="translate(1643.863281 0)"/>
       <use xlink:href="#DejaVuSans-72" transform="translate(1707.242188 0)"/>
       <use xlink:href="#DejaVuSans-61" transform="translate(1748.355469 0)"/>
       <use xlink:href="#DejaVuSans-63" transform="translate(1809.634766 0)"/>
       <use xlink:href="#DejaVuSans-79" transform="translate(1864.615234 0)"/>
      </g>
     </g>
    </g>
    <g id="ytick_12">
     <g id="line2d_26">
      <g>
       <use xlink:href="#m0fb2dec267" x="262.751563" y="125.221969" style="stroke: #000000; stroke-width: 0.8"/>
      </g>
     </g>
     <g id="text_19">
      <!-- Age/sex guardrail - Macro-F1 -->
      <g transform="translate(111.729688 129.021187) scale(0.1 -0.1)">
       <use xlink:href="#DejaVuSans-41"/>
       <use xlink:href="#DejaVuSans-67" transform="translate(68.408203 0)"/>
       <use xlink:href="#DejaVuSans-65" transform="translate(131.884766 0)"/>
       <use xlink:href="#DejaVuSans-2f" transform="translate(193.408203 0)"/>
       <use xlink:href="#DejaVuSans-73" transform="translate(227.099609 0)"/>
       <use xlink:href="#DejaVuSans-65" transform="translate(279.199219 0)"/>
       <use xlink:href="#DejaVuSans-78" transform="translate(338.972656 0)"/>
       <use xlink:href="#DejaVuSans-20" transform="translate(398.152344 0)"/>
       <use xlink:href="#DejaVuSans-67" transform="translate(429.939453 0)"/>
       <use xlink:href="#DejaVuSans-75" transform="translate(493.416016 0)"/>
       <use xlink:href="#DejaVuSans-61" transform="translate(556.794922 0)"/>
       <use xlink:href="#DejaVuSans-72" transform="translate(618.074219 0)"/>
       <use xlink:href="#DejaVuSans-64" transform="translate(657.4375 0)"/>
       <use xlink:href="#DejaVuSans-72" transform="translate(720.914062 0)"/>
       <use xlink:href="#DejaVuSans-61" transform="translate(762.027344 0)"/>
       <use xlink:href="#DejaVuSans-69" transform="translate(823.306641 0)"/>
       <use xlink:href="#DejaVuSans-6c" transform="translate(851.089844 0)"/>
       <use xlink:href="#DejaVuSans-20" transform="translate(878.873047 0)"/>
       <use xlink:href="#DejaVuSans-2d" transform="translate(910.660156 0)"/>
       <use xlink:href="#DejaVuSans-20" transform="translate(946.744141 0)"/>
       <use xlink:href="#DejaVuSans-4d" transform="translate(978.53125 0)"/>
       <use xlink:href="#DejaVuSans-61" transform="translate(1064.810547 0)"/>
       <use xlink:href="#DejaVuSans-63" transform="translate(1126.089844 0)"/>
       <use xlink:href="#DejaVuSans-72" transform="translate(1181.070312 0)"/>
       <use xlink:href="#DejaVuSans-6f" transform="translate(1219.933594 0)"/>
       <use xlink:href="#DejaVuSans-2d" transform="translate(1282.990234 0)"/>
       <use xlink:href="#DejaVuSans-46" transform="translate(1319.074219 0)"/>
       <use xlink:href="#DejaVuSans-31" transform="translate(1376.59375 0)"/>
      </g>
     </g>
    </g>
    <g id="ytick_13">
     <g id="line2d_27">
      <g>
       <use xlink:href="#m0fb2dec267" x="262.751563" y="103.717969" style="stroke: #000000; stroke-width: 0.8"/>
      </g>
     </g>
     <g id="text_20">
      <!-- Whole-image EfficientNet-B0 - Severe AUROC -->
      <g transform="translate(27.976563 107.517187) scale(0.1 -0.1)">
       <use xlink:href="#DejaVuSans-57"/>
       <use xlink:href="#DejaVuSans-68" transform="translate(98.876953 0)"/>
       <use xlink:href="#DejaVuSans-6f" transform="translate(162.255859 0)"/>
       <use xlink:href="#DejaVuSans-6c" transform="translate(223.4375 0)"/>
       <use xlink:href="#DejaVuSans-65" transform="translate(251.220703 0)"/>
       <use xlink:href="#DejaVuSans-2d" transform="translate(312.744141 0)"/>
       <use xlink:href="#DejaVuSans-69" transform="translate(348.828125 0)"/>
       <use xlink:href="#DejaVuSans-6d" transform="translate(376.611328 0)"/>
       <use xlink:href="#DejaVuSans-61" transform="translate(474.023438 0)"/>
       <use xlink:href="#DejaVuSans-67" transform="translate(535.302734 0)"/>
       <use xlink:href="#DejaVuSans-65" transform="translate(598.779297 0)"/>
       <use xlink:href="#DejaVuSans-20" transform="translate(660.302734 0)"/>
       <use xlink:href="#DejaVuSans-45" transform="translate(692.089844 0)"/>
       <use xlink:href="#DejaVuSans-66" transform="translate(755.273438 0)"/>
       <use xlink:href="#DejaVuSans-66" transform="translate(790.478516 0)"/>
       <use xlink:href="#DejaVuSans-69" transform="translate(825.683594 0)"/>
       <use xlink:href="#DejaVuSans-63" transform="translate(853.466797 0)"/>
       <use xlink:href="#DejaVuSans-69" transform="translate(908.447266 0)"/>
       <use xlink:href="#DejaVuSans-65" transform="translate(936.230469 0)"/>
       <use xlink:href="#DejaVuSans-6e" transform="translate(997.753906 0)"/>
       <use xlink:href="#DejaVuSans-74" transform="translate(1061.132812 0)"/>
       <use xlink:href="#DejaVuSans-4e" transform="translate(1100.341797 0)"/>
       <use xlink:href="#DejaVuSans-65" transform="translate(1175.146484 0)"/>
       <use xlink:href="#DejaVuSans-74" transform="translate(1236.669922 0)"/>
       <use xlink:href="#DejaVuSans-2d" transform="translate(1275.878906 0)"/>
       <use xlink:href="#DejaVuSans-42" transform="translate(1308.337891 0)"/>
       <use xlink:href="#DejaVuSans-30" transform="translate(1376.941406 0)"/>
       <use xlink:href="#DejaVuSans-20" transform="translate(1440.564453 0)"/>
       <use xlink:href="#DejaVuSans-2d" transform="translate(1472.351562 0)"/>
       <use xlink:href="#DejaVuSans-20" transform="translate(1508.435547 0)"/>
       <use xlink:href="#DejaVuSans-53" transform="translate(1540.222656 0)"/>
       <use xlink:href="#DejaVuSans-65" transform="translate(1603.699219 0)"/>
       <use xlink:href="#DejaVuSans-76" transform="translate(1665.222656 0)"/>
       <use xlink:href="#DejaVuSans-65" transform="translate(1724.402344 0)"/>
       <use xlink:href="#DejaVuSans-72" transform="translate(1785.925781 0)"/>
       <use xlink:href="#DejaVuSans-65" transform="translate(1824.789062 0)"/>
       <use xlink:href="#DejaVuSans-20" transform="translate(1886.3125 0)"/>
       <use xlink:href="#DejaVuSans-41" transform="translate(1918.099609 0)"/>
       <use xlink:href="#DejaVuSans-55" transform="translate(1986.507812 0)"/>
       <use xlink:href="#DejaVuSans-52" transform="translate(2059.701172 0)"/>
       <use xlink:href="#DejaVuSans-4f" transform="translate(2129.183594 0)"/>
       <use xlink:href="#DejaVuSans-43" transform="translate(2207.894531 0)"/>
      </g>
     </g>
    </g>
    <g id="ytick_14">
     <g id="line2d_28">
      <g>
       <use xlink:href="#m0fb2dec267" x="262.751563" y="82.213969" style="stroke: #000000; stroke-width: 0.8"/>
      </g>
     </g>
     <g id="text_21">
      <!-- Whole-image EfficientNet-B0 - QWK -->
      <g transform="translate(77.4125 86.013187) scale(0.1 -0.1)">
       <use xlink:href="#DejaVuSans-57"/>
       <use xlink:href="#DejaVuSans-68" transform="translate(98.876953 0)"/>
       <use xlink:href="#DejaVuSans-6f" transform="translate(162.255859 0)"/>
       <use xlink:href="#DejaVuSans-6c" transform="translate(223.4375 0)"/>
       <use xlink:href="#DejaVuSans-65" transform="translate(251.220703 0)"/>
       <use xlink:href="#DejaVuSans-2d" transform="translate(312.744141 0)"/>
       <use xlink:href="#DejaVuSans-69" transform="translate(348.828125 0)"/>
       <use xlink:href="#DejaVuSans-6d" transform="translate(376.611328 0)"/>
       <use xlink:href="#DejaVuSans-61" transform="translate(474.023438 0)"/>
       <use xlink:href="#DejaVuSans-67" transform="translate(535.302734 0)"/>
       <use xlink:href="#DejaVuSans-65" transform="translate(598.779297 0)"/>
       <use xlink:href="#DejaVuSans-20" transform="translate(660.302734 0)"/>
       <use xlink:href="#DejaVuSans-45" transform="translate(692.089844 0)"/>
       <use xlink:href="#DejaVuSans-66" transform="translate(755.273438 0)"/>
       <use xlink:href="#DejaVuSans-66" transform="translate(790.478516 0)"/>
       <use xlink:href="#DejaVuSans-69" transform="translate(825.683594 0)"/>
       <use xlink:href="#DejaVuSans-63" transform="translate(853.466797 0)"/>
       <use xlink:href="#DejaVuSans-69" transform="translate(908.447266 0)"/>
       <use xlink:href="#DejaVuSans-65" transform="translate(936.230469 0)"/>
       <use xlink:href="#DejaVuSans-6e" transform="translate(997.753906 0)"/>
       <use xlink:href="#DejaVuSans-74" transform="translate(1061.132812 0)"/>
       <use xlink:href="#DejaVuSans-4e" transform="translate(1100.341797 0)"/>
       <use xlink:href="#DejaVuSans-65" transform="translate(1175.146484 0)"/>
       <use xlink:href="#DejaVuSans-74" transform="translate(1236.669922 0)"/>
       <use xlink:href="#DejaVuSans-2d" transform="translate(1275.878906 0)"/>
       <use xlink:href="#DejaVuSans-42" transform="translate(1308.337891 0)"/>
       <use xlink:href="#DejaVuSans-30" transform="translate(1376.941406 0)"/>
       <use xlink:href="#DejaVuSans-20" transform="translate(1440.564453 0)"/>
       <use xlink:href="#DejaVuSans-2d" transform="translate(1472.351562 0)"/>
       <use xlink:href="#DejaVuSans-20" transform="translate(1508.435547 0)"/>
       <use xlink:href="#DejaVuSans-51" transform="translate(1540.222656 0)"/>
       <use xlink:href="#DejaVuSans-57" transform="translate(1618.933594 0)"/>
       <use xlink:href="#DejaVuSans-4b" transform="translate(1717.810547 0)"/>
      </g>
     </g>
    </g>
    <g id="ytick_15">
     <g id="line2d_29">
      <g>
       <use xlink:href="#m0fb2dec267" x="262.751563" y="60.709969" style="stroke: #000000; stroke-width: 0.8"/>
      </g>
     </g>
     <g id="text_22">
      <!-- Whole-image EfficientNet-B0 - Balanced accuracy -->
      <g transform="translate(7.2 64.509187) scale(0.1 -0.1)">
       <use xlink:href="#DejaVuSans-57"/>
       <use xlink:href="#DejaVuSans-68" transform="translate(98.876953 0)"/>
       <use xlink:href="#DejaVuSans-6f" transform="translate(162.255859 0)"/>
       <use xlink:href="#DejaVuSans-6c" transform="translate(223.4375 0)"/>
       <use xlink:href="#DejaVuSans-65" transform="translate(251.220703 0)"/>
       <use xlink:href="#DejaVuSans-2d" transform="translate(312.744141 0)"/>
       <use xlink:href="#DejaVuSans-69" transform="translate(348.828125 0)"/>
       <use xlink:href="#DejaVuSans-6d" transform="translate(376.611328 0)"/>
       <use xlink:href="#DejaVuSans-61" transform="translate(474.023438 0)"/>
       <use xlink:href="#DejaVuSans-67" transform="translate(535.302734 0)"/>
       <use xlink:href="#DejaVuSans-65" transform="translate(598.779297 0)"/>
       <use xlink:href="#DejaVuSans-20" transform="translate(660.302734 0)"/>
       <use xlink:href="#DejaVuSans-45" transform="translate(692.089844 0)"/>
       <use xlink:href="#DejaVuSans-66" transform="translate(755.273438 0)"/>
       <use xlink:href="#DejaVuSans-66" transform="translate(790.478516 0)"/>
       <use xlink:href="#DejaVuSans-69" transform="translate(825.683594 0)"/>
       <use xlink:href="#DejaVuSans-63" transform="translate(853.466797 0)"/>
       <use xlink:href="#DejaVuSans-69" transform="translate(908.447266 0)"/>
       <use xlink:href="#DejaVuSans-65" transform="translate(936.230469 0)"/>
       <use xlink:href="#DejaVuSans-6e" transform="translate(997.753906 0)"/>
       <use xlink:href="#DejaVuSans-74" transform="translate(1061.132812 0)"/>
       <use xlink:href="#DejaVuSans-4e" transform="translate(1100.341797 0)"/>
       <use xlink:href="#DejaVuSans-65" transform="translate(1175.146484 0)"/>
       <use xlink:href="#DejaVuSans-74" transform="translate(1236.669922 0)"/>
       <use xlink:href="#DejaVuSans-2d" transform="translate(1275.878906 0)"/>
       <use xlink:href="#DejaVuSans-42" transform="translate(1308.337891 0)"/>
       <use xlink:href="#DejaVuSans-30" transform="translate(1376.941406 0)"/>
       <use xlink:href="#DejaVuSans-20" transform="translate(1440.564453 0)"/>
       <use xlink:href="#DejaVuSans-2d" transform="translate(1472.351562 0)"/>
       <use xlink:href="#DejaVuSans-20" transform="translate(1508.435547 0)"/>
       <use xlink:href="#DejaVuSans-42" transform="translate(1540.222656 0)"/>
       <use xlink:href="#DejaVuSans-61" transform="translate(1608.826172 0)"/>
       <use xlink:href="#DejaVuSans-6c" transform="translate(1670.105469 0)"/>
       <use xlink:href="#DejaVuSans-61" transform="translate(1697.888672 0)"/>
       <use xlink:href="#DejaVuSans-6e" transform="translate(1759.167969 0)"/>
       <use xlink:href="#DejaVuSans-63" transform="translate(1822.546875 0)"/>
       <use xlink:href="#DejaVuSans-65" transform="translate(1877.527344 0)"/>
       <use xlink:href="#DejaVuSans-64" transform="translate(1939.050781 0)"/>
       <use xlink:href="#DejaVuSans-20" transform="translate(2002.527344 0)"/>
       <use xlink:href="#DejaVuSans-61" transform="translate(2034.314453 0)"/>
       <use xlink:href="#DejaVuSans-63" transform="translate(2095.59375 0)"/>
       <use xlink:href="#DejaVuSans-63" transform="translate(2150.574219 0)"/>
       <use xlink:href="#DejaVuSans-75" transform="translate(2205.554688 0)"/>
       <use xlink:href="#DejaVuSans-72" transform="translate(2268.933594 0)"/>
       <use xlink:href="#DejaVuSans-61" transform="translate(2310.046875 0)"/>
       <use xlink:href="#DejaVuSans-63" transform="translate(2371.326172 0)"/>
       <use xlink:href="#DejaVuSans-79" transform="translate(2426.306641 0)"/>
      </g>
     </g>
    </g>
    <g id="ytick_16">
     <g id="line2d_30">
      <g>
       <use xlink:href="#m0fb2dec267" x="262.751563" y="39.205969" style="stroke: #000000; stroke-width: 0.8"/>
      </g>
     </g>
     <g id="text_23">
      <!-- Whole-image EfficientNet-B0 - Macro-F1 -->
      <g transform="translate(55.560938 43.005187) scale(0.1 -0.1)">
       <use xlink:href="#DejaVuSans-57"/>
       <use xlink:href="#DejaVuSans-68" transform="translate(98.876953 0)"/>
       <use xlink:href="#DejaVuSans-6f" transform="translate(162.255859 0)"/>
       <use xlink:href="#DejaVuSans-6c" transform="translate(223.4375 0)"/>
       <use xlink:href="#DejaVuSans-65" transform="translate(251.220703 0)"/>
       <use xlink:href="#DejaVuSans-2d" transform="translate(312.744141 0)"/>
       <use xlink:href="#DejaVuSans-69" transform="translate(348.828125 0)"/>
       <use xlink:href="#DejaVuSans-6d" transform="translate(376.611328 0)"/>
       <use xlink:href="#DejaVuSans-61" transform="translate(474.023438 0)"/>
       <use xlink:href="#DejaVuSans-67" transform="translate(535.302734 0)"/>
       <use xlink:href="#DejaVuSans-65" transform="translate(598.779297 0)"/>
       <use xlink:href="#DejaVuSans-20" transform="translate(660.302734 0)"/>
       <use xlink:href="#DejaVuSans-45" transform="translate(692.089844 0)"/>
       <use xlink:href="#DejaVuSans-66" transform="translate(755.273438 0)"/>
       <use xlink:href="#DejaVuSans-66" transform="translate(790.478516 0)"/>
       <use xlink:href="#DejaVuSans-69" transform="translate(825.683594 0)"/>
       <use xlink:href="#DejaVuSans-63" transform="translate(853.466797 0)"/>
       <use xlink:href="#DejaVuSans-69" transform="translate(908.447266 0)"/>
       <use xlink:href="#DejaVuSans-65" transform="translate(936.230469 0)"/>
       <use xlink:href="#DejaVuSans-6e" transform="translate(997.753906 0)"/>
       <use xlink:href="#DejaVuSans-74" transform="translate(1061.132812 0)"/>
       <use xlink:href="#DejaVuSans-4e" transform="translate(1100.341797 0)"/>
       <use xlink:href="#DejaVuSans-65" transform="translate(1175.146484 0)"/>
       <use xlink:href="#DejaVuSans-74" transform="translate(1236.669922 0)"/>
       <use xlink:href="#DejaVuSans-2d" transform="translate(1275.878906 0)"/>
       <use xlink:href="#DejaVuSans-42" transform="translate(1308.337891 0)"/>
       <use xlink:href="#DejaVuSans-30" transform="translate(1376.941406 0)"/>
       <use xlink:href="#DejaVuSans-20" transform="translate(1440.564453 0)"/>
       <use xlink:href="#DejaVuSans-2d" transform="translate(1472.351562 0)"/>
       <use xlink:href="#DejaVuSans-20" transform="translate(1508.435547 0)"/>
       <use xlink:href="#DejaVuSans-4d" transform="translate(1540.222656 0)"/>
       <use xlink:href="#DejaVuSans-61" transform="translate(1626.501953 0)"/>
       <use xlink:href="#DejaVuSans-63" transform="translate(1687.78125 0)"/>
       <use xlink:href="#DejaVuSans-72" transform="translate(1742.761719 0)"/>
       <use xlink:href="#DejaVuSans-6f" transform="translate(1781.625 0)"/>
       <use xlink:href="#DejaVuSans-2d" transform="translate(1844.681641 0)"/>
       <use xlink:href="#DejaVuSans-46" transform="translate(1880.765625 0)"/>
       <use xlink:href="#DejaVuSans-31" transform="translate(1938.285156 0)"/>
      </g>
     </g>
    </g>
   </g>
   <g id="line2d_31">
    <path d="M 371.272942 377.893969 
L 371.272942 23.077969 
" clip-path="url(#p8b43e09420)" style="fill: none; stroke: #111827; stroke-linecap: square"/>
   </g>
   <g id="PathCollection_1">
    <defs>
     <path id="C0_0_32d18a2d44" d="M 0 3.464102 
C 0.91869 3.464102 1.799877 3.099102 2.44949 2.44949 
C 3.099102 1.799877 3.464102 0.91869 3.464102 -0 
C 3.464102 -0.91869 3.099102 -1.799877 2.44949 -2.44949 
C 1.799877 -3.099102 0.91869 -3.464102 0 -3.464102 
C -0.91869 -3.464102 -1.799877 -3.099102 -2.44949 -2.44949 
C -3.099102 -1.799877 -3.464102 -0.91869 -3.464102 0 
C -3.464102 0.91869 -3.099102 1.799877 -2.44949 2.44949 
C -1.799877 3.099102 -0.91869 3.464102 0 3.464102 
z
"/>
    </defs>
    <g clip-path="url(#p8b43e09420)">
     <use xlink:href="#C0_0_32d18a2d44" x="381.682943" y="361.765969" style="fill: #64748b; stroke: #64748b"/>
    </g>
    <g clip-path="url(#p8b43e09420)">
     <use xlink:href="#C0_0_32d18a2d44" x="401.466841" y="340.261969" style="fill: #64748b; stroke: #64748b"/>
    </g>
    <g clip-path="url(#p8b43e09420)">
     <use xlink:href="#C0_0_32d18a2d44" x="424.666067" y="318.757969" style="fill: #64748b; stroke: #64748b"/>
    </g>
    <g clip-path="url(#p8b43e09420)">
     <use xlink:href="#C0_0_32d18a2d44" x="430.929447" y="297.253969" style="fill: #64748b; stroke: #64748b"/>
    </g>
    <g clip-path="url(#p8b43e09420)">
     <use xlink:href="#C0_0_32d18a2d44" x="456.031861" y="275.749969" style="fill: #2f855a; stroke: #2f855a"/>
    </g>
    <g clip-path="url(#p8b43e09420)">
     <use xlink:href="#C0_0_32d18a2d44" x="525.863116" y="254.245969" style="fill: #2f855a; stroke: #2f855a"/>
    </g>
    <g clip-path="url(#p8b43e09420)">
     <use xlink:href="#C0_0_32d18a2d44" x="462.891047" y="232.741969" style="fill: #2f855a; stroke: #2f855a"/>
    </g>
    <g clip-path="url(#p8b43e09420)">
     <use xlink:href="#C0_0_32d18a2d44" x="451.831827" y="211.237969" style="fill: #2f855a; stroke: #2f855a"/>
    </g>
    <g clip-path="url(#p8b43e09420)">
     <use xlink:href="#C0_0_32d18a2d44" x="599.644739" y="189.733969" style="fill: #2f855a; stroke: #2f855a"/>
    </g>
    <g clip-path="url(#p8b43e09420)">
     <use xlink:href="#C0_0_32d18a2d44" x="632.139888" y="168.229969" style="fill: #2f855a; stroke: #2f855a"/>
    </g>
    <g clip-path="url(#p8b43e09420)">
     <use xlink:href="#C0_0_32d18a2d44" x="385.115095" y="146.725969" style="fill: #64748b; stroke: #64748b"/>
    </g>
    <g clip-path="url(#p8b43e09420)">
     <use xlink:href="#C0_0_32d18a2d44" x="487.579692" y="125.221969" style="fill: #2f855a; stroke: #2f855a"/>
    </g>
    <g clip-path="url(#p8b43e09420)">
     <use xlink:href="#C0_0_32d18a2d44" x="383.440351" y="103.717969" style="fill: #64748b; stroke: #64748b"/>
    </g>
    <g clip-path="url(#p8b43e09420)">
     <use xlink:href="#C0_0_32d18a2d44" x="431.252713" y="82.213969" style="fill: #64748b; stroke: #64748b"/>
    </g>
    <g clip-path="url(#p8b43e09420)">
     <use xlink:href="#C0_0_32d18a2d44" x="444.285438" y="60.709969" style="fill: #64748b; stroke: #64748b"/>
    </g>
    <g clip-path="url(#p8b43e09420)">
     <use xlink:href="#C0_0_32d18a2d44" x="450.439155" y="39.205969" style="fill: #2f855a; stroke: #2f855a"/>
    </g>
   </g>
   <g id="patch_3">
    <path d="M 262.751563 377.893969 
L 262.751563 23.077969 
" style="fill: none; stroke: #000000; stroke-width: 0.8; stroke-linejoin: miter; stroke-linecap: square"/>
   </g>
   <g id="patch_4">
    <path d="M 262.751563 377.893969 
L 787.271563 377.893969 
" style="fill: none; stroke: #000000; stroke-width: 0.8; stroke-linejoin: miter; stroke-linecap: square"/>
   </g>
   <g id="text_24">
    <!-- Where the tile model gains are clearest -->
    <g transform="translate(379.741641 17.077969) scale(0.13 -0.13)">
     <defs>
      <path id="DejaVuSans-Bold-57" d="M 191 4666 
L 1344 4666 
L 2150 1275 
L 2950 4666 
L 4109 4666 
L 4909 1275 
L 5716 4666 
L 6859 4666 
L 5759 0 
L 4372 0 
L 3525 3547 
L 2688 0 
L 1300 0 
L 191 4666 
z
" transform="scale(0.015625)"/>
      <path id="DejaVuSans-Bold-68" d="M 4056 2131 
L 4056 0 
L 2931 0 
L 2931 347 
L 2931 1625 
Q 2931 2084 2911 2256 
Q 2891 2428 2841 2509 
Q 2775 2619 2662 2680 
Q 2550 2741 2406 2741 
Q 2056 2741 1856 2470 
Q 1656 2200 1656 1722 
L 1656 0 
L 538 0 
L 538 4863 
L 1656 4863 
L 1656 2988 
Q 1909 3294 2193 3439 
Q 2478 3584 2822 3584 
Q 3428 3584 3742 3212 
Q 4056 2841 4056 2131 
z
" transform="scale(0.015625)"/>
      <path id="DejaVuSans-Bold-65" d="M 4031 1759 
L 4031 1441 
L 1416 1441 
Q 1456 1047 1700 850 
Q 1944 653 2381 653 
Q 2734 653 3104 758 
Q 3475 863 3866 1075 
L 3866 213 
Q 3469 63 3072 -14 
Q 2675 -91 2278 -91 
Q 1328 -91 801 392 
Q 275 875 275 1747 
Q 275 2603 792 3093 
Q 1309 3584 2216 3584 
Q 3041 3584 3536 3087 
Q 4031 2591 4031 1759 
z
M 2881 2131 
Q 2881 2450 2695 2645 
Q 2509 2841 2209 2841 
Q 1884 2841 1681 2658 
Q 1478 2475 1428 2131 
L 2881 2131 
z
" transform="scale(0.015625)"/>
      <path id="DejaVuSans-Bold-72" d="M 3138 2547 
Q 2991 2616 2845 2648 
Q 2700 2681 2553 2681 
Q 2122 2681 1889 2404 
Q 1656 2128 1656 1613 
L 1656 0 
L 538 0 
L 538 3500 
L 1656 3500 
L 1656 2925 
Q 1872 3269 2151 3426 
Q 2431 3584 2822 3584 
Q 2878 3584 2943 3579 
Q 3009 3575 3134 3559 
L 3138 2547 
z
" transform="scale(0.015625)"/>
      <path id="DejaVuSans-Bold-20" transform="scale(0.015625)"/>
      <path id="DejaVuSans-Bold-74" d="M 1759 4494 
L 1759 3500 
L 2913 3500 
L 2913 2700 
L 1759 2700 
L 1759 1216 
Q 1759 972 1856 886 
Q 1953 800 2241 800 
L 2816 800 
L 2816 0 
L 1856 0 
Q 1194 0 917 276 
Q 641 553 641 1216 
L 641 2700 
L 84 2700 
L 84 3500 
L 641 3500 
L 641 4494 
L 1759 4494 
z
" transform="scale(0.015625)"/>
      <path id="DejaVuSans-Bold-69" d="M 538 3500 
L 1656 3500 
L 1656 0 
L 538 0 
L 538 3500 
z
M 538 4863 
L 1656 4863 
L 1656 3950 
L 538 3950 
L 538 4863 
z
" transform="scale(0.015625)"/>
      <path id="DejaVuSans-Bold-6c" d="M 538 4863 
L 1656 4863 
L 1656 0 
L 538 0 
L 538 4863 
z
" transform="scale(0.015625)"/>
      <path id="DejaVuSans-Bold-6d" d="M 3781 2919 
Q 3994 3244 4286 3414 
Q 4578 3584 4928 3584 
Q 5531 3584 5847 3212 
Q 6163 2841 6163 2131 
L 6163 0 
L 5038 0 
L 5038 1825 
Q 5041 1866 5042 1909 
Q 5044 1953 5044 2034 
Q 5044 2406 4934 2573 
Q 4825 2741 4581 2741 
Q 4263 2741 4089 2478 
Q 3916 2216 3909 1719 
L 3909 0 
L 2784 0 
L 2784 1825 
Q 2784 2406 2684 2573 
Q 2584 2741 2328 2741 
Q 2006 2741 1831 2477 
Q 1656 2213 1656 1722 
L 1656 0 
L 531 0 
L 531 3500 
L 1656 3500 
L 1656 2988 
Q 1863 3284 2130 3434 
Q 2397 3584 2719 3584 
Q 3081 3584 3359 3409 
Q 3638 3234 3781 2919 
z
" transform="scale(0.015625)"/>
      <path id="DejaVuSans-Bold-6f" d="M 2203 2784 
Q 1831 2784 1636 2517 
Q 1441 2250 1441 1747 
Q 1441 1244 1636 976 
Q 1831 709 2203 709 
Q 2569 709 2762 976 
Q 2956 1244 2956 1747 
Q 2956 2250 2762 2517 
Q 2569 2784 2203 2784 
z
M 2203 3584 
Q 3106 3584 3614 3096 
Q 4122 2609 4122 1747 
Q 4122 884 3614 396 
Q 3106 -91 2203 -91 
Q 1297 -91 786 396 
Q 275 884 275 1747 
Q 275 2609 786 3096 
Q 1297 3584 2203 3584 
z
" transform="scale(0.015625)"/>
      <path id="DejaVuSans-Bold-64" d="M 2919 2988 
L 2919 4863 
L 4044 4863 
L 4044 0 
L 2919 0 
L 2919 506 
Q 2688 197 2409 53 
Q 2131 -91 1766 -91 
Q 1119 -91 703 423 
Q 288 938 288 1747 
Q 288 2556 703 3070 
Q 1119 3584 1766 3584 
Q 2128 3584 2408 3439 
Q 2688 3294 2919 2988 
z
M 2181 722 
Q 2541 722 2730 984 
Q 2919 1247 2919 1747 
Q 2919 2247 2730 2509 
Q 2541 2772 2181 2772 
Q 1825 2772 1636 2509 
Q 1447 2247 1447 1747 
Q 1447 1247 1636 984 
Q 1825 722 2181 722 
z
" transform="scale(0.015625)"/>
      <path id="DejaVuSans-Bold-67" d="M 2919 594 
Q 2688 288 2409 144 
Q 2131 0 1766 0 
Q 1125 0 706 504 
Q 288 1009 288 1791 
Q 288 2575 706 3076 
Q 1125 3578 1766 3578 
Q 2131 3578 2409 3434 
Q 2688 3291 2919 2981 
L 2919 3500 
L 4044 3500 
L 4044 353 
Q 4044 -491 3511 -936 
Q 2978 -1381 1966 -1381 
Q 1638 -1381 1331 -1331 
Q 1025 -1281 716 -1178 
L 716 -306 
Q 1009 -475 1290 -558 
Q 1572 -641 1856 -641 
Q 2406 -641 2662 -400 
Q 2919 -159 2919 353 
L 2919 594 
z
M 2181 2772 
Q 1834 2772 1640 2515 
Q 1447 2259 1447 1791 
Q 1447 1309 1634 1061 
Q 1822 813 2181 813 
Q 2531 813 2725 1069 
Q 2919 1325 2919 1791 
Q 2919 2259 2725 2515 
Q 2531 2772 2181 2772 
z
" transform="scale(0.015625)"/>
      <path id="DejaVuSans-Bold-61" d="M 2106 1575 
Q 1756 1575 1579 1456 
Q 1403 1338 1403 1106 
Q 1403 894 1545 773 
Q 1688 653 1941 653 
Q 2256 653 2472 879 
Q 2688 1106 2688 1447 
L 2688 1575 
L 2106 1575 
z
M 3816 1997 
L 3816 0 
L 2688 0 
L 2688 519 
Q 2463 200 2181 54 
Q 1900 -91 1497 -91 
Q 953 -91 614 226 
Q 275 544 275 1050 
Q 275 1666 698 1953 
Q 1122 2241 2028 2241 
L 2688 2241 
L 2688 2328 
Q 2688 2594 2478 2717 
Q 2269 2841 1825 2841 
Q 1466 2841 1156 2769 
Q 847 2697 581 2553 
L 581 3406 
Q 941 3494 1303 3539 
Q 1666 3584 2028 3584 
Q 2975 3584 3395 3211 
Q 3816 2838 3816 1997 
z
" transform="scale(0.015625)"/>
      <path id="DejaVuSans-Bold-6e" d="M 4056 2131 
L 4056 0 
L 2931 0 
L 2931 347 
L 2931 1631 
Q 2931 2084 2911 2256 
Q 2891 2428 2841 2509 
Q 2775 2619 2662 2680 
Q 2550 2741 2406 2741 
Q 2056 2741 1856 2470 
Q 1656 2200 1656 1722 
L 1656 0 
L 538 0 
L 538 3500 
L 1656 3500 
L 1656 2988 
Q 1909 3294 2193 3439 
Q 2478 3584 2822 3584 
Q 3428 3584 3742 3212 
Q 4056 2841 4056 2131 
z
" transform="scale(0.015625)"/>
      <path id="DejaVuSans-Bold-73" d="M 3272 3391 
L 3272 2541 
Q 2913 2691 2578 2766 
Q 2244 2841 1947 2841 
Q 1628 2841 1473 2761 
Q 1319 2681 1319 2516 
Q 1319 2381 1436 2309 
Q 1553 2238 1856 2203 
L 2053 2175 
Q 2913 2066 3209 1816 
Q 3506 1566 3506 1031 
Q 3506 472 3093 190 
Q 2681 -91 1863 -91 
Q 1516 -91 1145 -36 
Q 775 19 384 128 
L 384 978 
Q 719 816 1070 734 
Q 1422 653 1784 653 
Q 2113 653 2278 743 
Q 2444 834 2444 1013 
Q 2444 1163 2330 1236 
Q 2216 1309 1875 1350 
L 1678 1375 
Q 931 1469 631 1722 
Q 331 1975 331 2491 
Q 331 3047 712 3315 
Q 1094 3584 1881 3584 
Q 2191 3584 2531 3537 
Q 2872 3491 3272 3391 
z
" transform="scale(0.015625)"/>
      <path id="DejaVuSans-Bold-63" d="M 3366 3391 
L 3366 2478 
Q 3138 2634 2908 2709 
Q 2678 2784 2431 2784 
Q 1963 2784 1702 2511 
Q 1441 2238 1441 1747 
Q 1441 1256 1702 982 
Q 1963 709 2431 709 
Q 2694 709 2930 787 
Q 3166 866 3366 1019 
L 3366 103 
Q 3103 6 2833 -42 
Q 2563 -91 2291 -91 
Q 1344 -91 809 395 
Q 275 881 275 1747 
Q 275 2613 809 3098 
Q 1344 3584 2291 3584 
Q 2566 3584 2833 3536 
Q 3100 3488 3366 3391 
z
" transform="scale(0.015625)"/>
     </defs>
     <use xlink:href="#DejaVuSans-Bold-57"/>
     <use xlink:href="#DejaVuSans-Bold-68" transform="translate(110.302734 0)"/>
     <use xlink:href="#DejaVuSans-Bold-65" transform="translate(181.494141 0)"/>
     <use xlink:href="#DejaVuSans-Bold-72" transform="translate(249.316406 0)"/>
     <use xlink:href="#DejaVuSans-Bold-65" transform="translate(298.632812 0)"/>
     <use xlink:href="#DejaVuSans-Bold-20" transform="translate(366.455078 0)"/>
     <use xlink:href="#DejaVuSans-Bold-74" transform="translate(401.269531 0)"/>
     <use xlink:href="#DejaVuSans-Bold-68" transform="translate(449.072266 0)"/>
     <use xlink:href="#DejaVuSans-Bold-65" transform="translate(520.263672 0)"/>
     <use xlink:href="#DejaVuSans-Bold-20" transform="translate(588.085938 0)"/>
     <use xlink:href="#DejaVuSans-Bold-74" transform="translate(622.900391 0)"/>
     <use xlink:href="#DejaVuSans-Bold-69" transform="translate(670.703125 0)"/>
     <use xlink:href="#DejaVuSans-Bold-6c" transform="translate(704.980469 0)"/>
     <use xlink:href="#DejaVuSans-Bold-65" transform="translate(739.257812 0)"/>
     <use xlink:href="#DejaVuSans-Bold-20" transform="translate(807.080078 0)"/>
     <use xlink:href="#DejaVuSans-Bold-6d" transform="translate(841.894531 0)"/>
     <use xlink:href="#DejaVuSans-Bold-6f" transform="translate(946.09375 0)"/>
     <use xlink:href="#DejaVuSans-Bold-64" transform="translate(1014.794922 0)"/>
     <use xlink:href="#DejaVuSans-Bold-65" transform="translate(1086.376953 0)"/>
     <use xlink:href="#DejaVuSans-Bold-6c" transform="translate(1154.199219 0)"/>
     <use xlink:href="#DejaVuSans-Bold-20" transform="translate(1188.476562 0)"/>
     <use xlink:href="#DejaVuSans-Bold-67" transform="translate(1223.291016 0)"/>
     <use xlink:href="#DejaVuSans-Bold-61" transform="translate(1294.873047 0)"/>
     <use xlink:href="#DejaVuSans-Bold-69" transform="translate(1362.353516 0)"/>
     <use xlink:href="#DejaVuSans-Bold-6e" transform="translate(1396.630859 0)"/>
     <use xlink:href="#DejaVuSans-Bold-73" transform="translate(1467.822266 0)"/>
     <use xlink:href="#DejaVuSans-Bold-20" transform="translate(1527.34375 0)"/>
     <use xlink:href="#DejaVuSans-Bold-61" transform="translate(1562.158203 0)"/>
     <use xlink:href="#DejaVuSans-Bold-72" transform="translate(1629.638672 0)"/>
     <use xlink:href="#DejaVuSans-Bold-65" transform="translate(1678.955078 0)"/>
     <use xlink:href="#DejaVuSans-Bold-20" transform="translate(1746.777344 0)"/>
     <use xlink:href="#DejaVuSans-Bold-63" transform="translate(1781.591797 0)"/>
     <use xlink:href="#DejaVuSans-Bold-6c" transform="translate(1840.869141 0)"/>
     <use xlink:href="#DejaVuSans-Bold-65" transform="translate(1875.146484 0)"/>
     <use xlink:href="#DejaVuSans-Bold-61" transform="translate(1942.96875 0)"/>
     <use xlink:href="#DejaVuSans-Bold-72" transform="translate(2010.449219 0)"/>
     <use xlink:href="#DejaVuSans-Bold-65" transform="translate(2059.765625 0)"/>
     <use xlink:href="#DejaVuSans-Bold-73" transform="translate(2127.587891 0)"/>
     <use xlink:href="#DejaVuSans-Bold-74" transform="translate(2187.109375 0)"/>
    </g>
   </g>
  </g>
 </g>
 <defs>
  <clipPath id="p8b43e09420">
   <rect x="262.751563" y="23.077969" width="524.52" height="354.816"/>
  </clipPath>
 </defs>
</svg>
